<mxfile host="Electron" modified="2024-05-23T12:10:20.083Z" agent="Mozilla/5.0 (Macintosh; Intel Mac OS X 10_15_7) AppleWebKit/537.36 (KHTML, like Gecko) draw.io/24.0.4 Chrome/120.0.6099.109 Electron/28.1.0 Safari/537.36" etag="BASB7OrPyP3tqm0Ib2ZB" version="24.0.4" type="device">
  <diagram name="Page-1" id="cTcXGuVlJ4IMSFhP2NHi">
    <mxGraphModel dx="1443" dy="785" grid="1" gridSize="10" guides="1" tooltips="1" connect="1" arrows="1" fold="1" page="1" pageScale="1" pageWidth="827" pageHeight="1169" math="0" shadow="0">
      <root>
        <mxCell id="0" />
        <mxCell id="1" parent="0" />
        <mxCell id="hiCZ41Te97qc9-zwpl-o-327" value="" style="endArrow=classic;startArrow=classic;html=1;rounded=0;exitX=1;exitY=0.5;exitDx=0;exitDy=0;entryX=0;entryY=0.5;entryDx=0;entryDy=0;fontFamily=IBM Plex Sans;fontSource=fonts%2FIBMPlexSans-Regular.woff;" parent="1" source="hiCZ41Te97qc9-zwpl-o-289" target="hiCZ41Te97qc9-zwpl-o-342" edge="1">
          <mxGeometry width="50" height="50" relative="1" as="geometry">
            <mxPoint x="814" y="243" as="sourcePoint" />
            <mxPoint x="794" y="357.5" as="targetPoint" />
          </mxGeometry>
        </mxCell>
        <mxCell id="hiCZ41Te97qc9-zwpl-o-328" value="" style="endArrow=classic;startArrow=classic;html=1;rounded=1;exitX=1;exitY=0.5;exitDx=0;exitDy=0;fontFamily=IBM Plex Sans;fontSource=fonts%2FIBMPlexSans-Regular.woff;entryX=0;entryY=0.5;entryDx=0;entryDy=0;" parent="1" source="hiCZ41Te97qc9-zwpl-o-285" target="hiCZ41Te97qc9-zwpl-o-380" edge="1">
          <mxGeometry width="50" height="50" relative="1" as="geometry">
            <mxPoint x="814" y="243" as="sourcePoint" />
            <mxPoint x="794" y="427.5" as="targetPoint" />
            <Array as="points">
              <mxPoint x="590" y="408" />
              <mxPoint x="590" y="428" />
            </Array>
          </mxGeometry>
        </mxCell>
        <mxCell id="hiCZ41Te97qc9-zwpl-o-329" value="" style="endArrow=classic;startArrow=classic;html=1;rounded=1;exitX=1;exitY=0.5;exitDx=0;exitDy=0;entryX=0;entryY=0.5;entryDx=0;entryDy=0;fontFamily=IBM Plex Sans;fontSource=fonts%2FIBMPlexSans-Regular.woff;" parent="1" source="hiCZ41Te97qc9-zwpl-o-292" target="hiCZ41Te97qc9-zwpl-o-380" edge="1">
          <mxGeometry width="50" height="50" relative="1" as="geometry">
            <mxPoint x="310" y="418" as="sourcePoint" />
            <mxPoint x="794" y="427.5" as="targetPoint" />
            <Array as="points">
              <mxPoint x="590" y="458" />
              <mxPoint x="590" y="428" />
            </Array>
          </mxGeometry>
        </mxCell>
        <mxCell id="hiCZ41Te97qc9-zwpl-o-330" value="" style="endArrow=classic;startArrow=classic;html=1;rounded=1;exitX=1;exitY=0.5;exitDx=0;exitDy=0;entryX=0.5;entryY=1;entryDx=0;entryDy=0;fontFamily=IBM Plex Sans;fontSource=fonts%2FIBMPlexSans-Regular.woff;" parent="1" source="hiCZ41Te97qc9-zwpl-o-302" target="hiCZ41Te97qc9-zwpl-o-412" edge="1">
          <mxGeometry width="50" height="50" relative="1" as="geometry">
            <mxPoint x="904" y="243" as="sourcePoint" />
            <mxPoint x="1100" y="250" as="targetPoint" />
            <Array as="points">
              <mxPoint x="1080" y="560" />
            </Array>
          </mxGeometry>
        </mxCell>
        <mxCell id="hiCZ41Te97qc9-zwpl-o-331" value="" style="endArrow=classic;html=1;entryX=1;entryY=0.5;entryDx=0;entryDy=0;fontFamily=IBM Plex Sans;fontSource=fonts%2FIBMPlexSans-Regular.woff;rounded=1;exitX=1;exitY=0.5;exitDx=0;exitDy=0;" parent="1" source="hiCZ41Te97qc9-zwpl-o-408" target="hiCZ41Te97qc9-zwpl-o-321" edge="1">
          <mxGeometry width="50" height="50" relative="1" as="geometry">
            <mxPoint x="1180" y="250" as="sourcePoint" />
            <mxPoint x="967" y="155" as="targetPoint" />
            <Array as="points">
              <mxPoint x="1180" y="248" />
              <mxPoint x="1180" y="718" />
            </Array>
          </mxGeometry>
        </mxCell>
        <mxCell id="hiCZ41Te97qc9-zwpl-o-332" value="" style="endArrow=classic;html=1;exitX=0.75;exitY=1;exitDx=0;exitDy=0;entryX=1;entryY=0.5;entryDx=0;entryDy=0;fontFamily=IBM Plex Sans;fontSource=fonts%2FIBMPlexSans-Regular.woff;rounded=1;" parent="1" source="hiCZ41Te97qc9-zwpl-o-383" target="hiCZ41Te97qc9-zwpl-o-324" edge="1">
          <mxGeometry width="50" height="50" relative="1" as="geometry">
            <mxPoint x="1180" y="250" as="sourcePoint" />
            <mxPoint x="310" y="678" as="targetPoint" />
            <Array as="points">
              <mxPoint x="1135" y="668" />
            </Array>
          </mxGeometry>
        </mxCell>
        <mxCell id="hiCZ41Te97qc9-zwpl-o-205" value="" style="endArrow=classic;html=1;rounded=1;exitX=1;exitY=0.5;exitDx=0;exitDy=0;entryX=0;entryY=0.25;entryDx=0;entryDy=0;fontFamily=IBM Plex Sans;fontSource=fonts%2FIBMPlexSans-Regular.woff;" parent="1" source="hiCZ41Te97qc9-zwpl-o-20" target="hiCZ41Te97qc9-zwpl-o-338" edge="1">
          <mxGeometry relative="1" as="geometry">
            <mxPoint x="571" y="110" as="sourcePoint" />
            <mxPoint x="1061.17" y="127.5" as="targetPoint" />
            <Array as="points">
              <mxPoint x="730" y="105" />
              <mxPoint x="730" y="139" />
            </Array>
          </mxGeometry>
        </mxCell>
        <mxCell id="hiCZ41Te97qc9-zwpl-o-206" value="Audit events" style="edgeLabel;resizable=0;html=1;align=left;verticalAlign=middle;fontFamily=IBM Plex Sans;fontSource=fonts%2FIBMPlexSans-Regular.woff;" parent="hiCZ41Te97qc9-zwpl-o-205" connectable="0" vertex="1">
          <mxGeometry relative="1" as="geometry">
            <mxPoint x="-81" as="offset" />
          </mxGeometry>
        </mxCell>
        <mxCell id="hiCZ41Te97qc9-zwpl-o-302" value="" style="rounded=0;whiteSpace=wrap;html=1;fontFamily=IBM Plex Sans;fontSource=fonts%2FIBMPlexSans-Regular.woff;fontSize=14;spacingBottom=-28;spacingTop=0;labelPosition=-100;verticalLabelPosition=top;align=center;verticalAlign=bottom;spacingLeft=9;spacing=0;expand=0;recursiveResize=0;spacingRight=0;container=1;collapsible=0;strokeColor=#1192E8;fillColor=none;" parent="1" vertex="1">
          <mxGeometry x="205" y="489" width="230" height="145" as="geometry">
            <mxRectangle width="670" as="alternateBounds" />
          </mxGeometry>
        </mxCell>
        <mxCell id="hiCZ41Te97qc9-zwpl-o-303" value="" style="rounded=0;whiteSpace=wrap;html=1;strokeColor=none;fillColor=#1192E8;" parent="hiCZ41Te97qc9-zwpl-o-302" vertex="1">
          <mxGeometry width="7" height="37" as="geometry" />
        </mxCell>
        <mxCell id="hiCZ41Te97qc9-zwpl-o-304" value="IBM Cloud Object Storage" style="text;html=1;strokeColor=none;fillColor=none;align=left;verticalAlign=middle;whiteSpace=wrap;rounded=0;fontFamily=IBM Plex Sans;fontSource=fonts%2FIBMPlexSans-Regular.woff;fontSize=14;" parent="hiCZ41Te97qc9-zwpl-o-302" vertex="1">
          <mxGeometry x="51" y="8" width="169" height="20" as="geometry" />
        </mxCell>
        <mxCell id="hiCZ41Te97qc9-zwpl-o-298" value="" style="shape=image;aspect=fixed;image=data:image/svg+xml,PHN2ZyBpZD0iaWNvbiIgeG1sbnM9Imh0dHA6Ly93d3cudzMub3JnLzIwMDAvc3ZnIiB3aWR0aD0iMzIiIGhlaWdodD0iMzIiIHZpZXdCb3g9IjAgMCAzMiAzMiI+CiAgPGRlZnM+CiAgICA8c3R5bGU+CiAgICAgIC5jbHMtMSB7CiAgICAgICAgZmlsbDogbm9uZTsKICAgICAgfQogICAgPC9zdHlsZT4KICA8L2RlZnM+CiAgPHBhdGggZD0iTTI4LDIwSDI2djJoMnY2SDRWMjJIMTRWMjBINGEyLjAwMjMsMi4wMDIzLDAsMCwwLTIsMnY2YTIuMDAyMywyLjAwMjMsMCwwLDAsMiwySDI4YTIuMDAyMywyLjAwMjMsMCwwLDAsMi0yVjIyQTIuMDAyMywyLjAwMjMsMCwwLDAsMjgsMjBaIi8+CiAgPGNpcmNsZSBjeD0iNyIgY3k9IjI1IiByPSIxIi8+CiAgPHBhdGggZD0iTTMwLDhIMjJ2NkgxNnY4aDhWMTZoNlpNMjIsMjBIMThWMTZoNFptNi02SDI0VjEwaDRaIi8+CiAgPHBhdGggZD0iTTE4LDEwSDEwVjJoOFpNMTIsOGg0VjRIMTJaIi8+CiAgPHJlY3QgaWQ9Il9UcmFuc3BhcmVudF9SZWN0YW5nbGVfIiBkYXRhLW5hbWU9IiZsdDtUcmFuc3BhcmVudCBSZWN0YW5nbGUmZ3Q7IiBjbGFzcz0iY2xzLTEiIHdpZHRoPSIzMiIgaGVpZ2h0PSIzMiIvPgo8L3N2Zz4K;" parent="hiCZ41Te97qc9-zwpl-o-302" vertex="1">
          <mxGeometry x="20" y="6" width="25" height="25" as="geometry" />
        </mxCell>
        <mxCell id="hiCZ41Te97qc9-zwpl-o-312" value="" style="group" parent="hiCZ41Te97qc9-zwpl-o-302" vertex="1" connectable="0">
          <mxGeometry x="32" y="95" width="166" height="35" as="geometry" />
        </mxCell>
        <mxCell id="hiCZ41Te97qc9-zwpl-o-313" value="" style="rounded=0;whiteSpace=wrap;html=1;fontFamily=IBM Plex Sans;fontSource=fonts%2FIBMPlexSans-Regular.woff;fontSize=14;spacingBottom=-28;spacingTop=0;labelPosition=-100;verticalLabelPosition=top;align=center;verticalAlign=bottom;spacingLeft=9;spacing=0;expand=0;recursiveResize=0;spacingRight=0;container=0;collapsible=0;strokeColor=#1192E8;fillColor=none;" parent="hiCZ41Te97qc9-zwpl-o-312" vertex="1">
          <mxGeometry width="166" height="35" as="geometry">
            <mxRectangle width="670" as="alternateBounds" />
          </mxGeometry>
        </mxCell>
        <mxCell id="hiCZ41Te97qc9-zwpl-o-314" value="Log metrics bucket" style="text;html=1;strokeColor=none;fillColor=none;align=left;verticalAlign=middle;whiteSpace=wrap;rounded=0;fontFamily=IBM Plex Sans;fontSource=fonts%2FIBMPlexSans-Regular.woff;fontSize=14;container=0;" parent="hiCZ41Te97qc9-zwpl-o-312" vertex="1">
          <mxGeometry x="34" y="8" width="122" height="20" as="geometry" />
        </mxCell>
        <mxCell id="hiCZ41Te97qc9-zwpl-o-299" value="" style="shape=image;aspect=fixed;image=data:image/svg+xml,PHN2ZyBpZD0iaWNvbiIgeG1sbnM9Imh0dHA6Ly93d3cudzMub3JnLzIwMDAvc3ZnIiB3aWR0aD0iMzIiIGhlaWdodD0iMzIiIHZpZXdCb3g9IjAgMCAzMiAzMiI+CiAgPGRlZnM+CiAgICA8c3R5bGU+CiAgICAgIC5jbHMtMSB7CiAgICAgICAgZmlsbDogbm9uZTsKICAgICAgfQogICAgPC9zdHlsZT4KICA8L2RlZnM+CiAgPHBhdGggZD0iTTIzLDI0YTIuOTgsMi45OCwwLDAsMC0yLjAzNzYuODExNWwtNC4wMDM3LTIuNDAyM2EyLjA0NzgsMi4wNDc4LDAsMCwwLDAtLjgxODRsNC4wMDM3LTIuNDAyM2EzLjI0NjMsMy4yNDYzLDAsMSwwLS45MjExLTEuNzc5M2wtNC4wMDM3LDIuNDAyM2EzLDMsMCwxLDAsMCw0LjM3N2w0LjAwMzcsMi40MDIzQTIuOTcyOSwyLjk3MjksMCwwLDAsMjAsMjdhMywzLDAsMSwwLDMtM1ptMC04YTEsMSwwLDEsMS0xLDFBMS4wMDA4LDEuMDAwOCwwLDAsMSwyMywxNlptLTksN2ExLDEsMCwxLDEsMS0xQTEuMDAwOCwxLjAwMDgsMCwwLDEsMTQsMjNabTksNWExLDEsMCwxLDEsMS0xQTEuMDAwOCwxLjAwMDgsMCwwLDEsMjMsMjhaIi8+CiAgPHBhdGggZD0iTTgsMjhINGEyLjAwMjMsMi4wMDIzLDAsMCwxLTItMlY2QTIuMDAyMywyLjAwMjMsMCwwLDEsNCw0aDcuNTg1N0ExLjk4NjUsMS45ODY1LDAsMCwxLDEzLDQuNTg1OUwxNi40MTQzLDhIMjhhMi4wMDIzLDIuMDAyMywwLDAsMSwyLDJ2OEgyOFYxMEgxNS41ODU3bC00LTRINFYyNkg4WiIvPgogIDxyZWN0IGlkPSJfVHJhbnNwYXJlbnRfUmVjdGFuZ2xlXyIgZGF0YS1uYW1lPSImbHQ7VHJhbnNwYXJlbnQgUmVjdGFuZ2xlJmd0OyIgY2xhc3M9ImNscy0xIiB3aWR0aD0iMzIiIGhlaWdodD0iMzIiLz4KPC9zdmc+Cg==;" parent="hiCZ41Te97qc9-zwpl-o-312" vertex="1">
          <mxGeometry x="7" y="5" width="25" height="25" as="geometry" />
        </mxCell>
        <mxCell id="hiCZ41Te97qc9-zwpl-o-306" value="" style="group" parent="hiCZ41Te97qc9-zwpl-o-302" vertex="1" connectable="0">
          <mxGeometry x="32" y="50" width="166" height="35" as="geometry" />
        </mxCell>
        <mxCell id="hiCZ41Te97qc9-zwpl-o-307" value="" style="rounded=0;whiteSpace=wrap;html=1;fontFamily=IBM Plex Sans;fontSource=fonts%2FIBMPlexSans-Regular.woff;fontSize=14;spacingBottom=-28;spacingTop=0;labelPosition=-100;verticalLabelPosition=top;align=center;verticalAlign=bottom;spacingLeft=9;spacing=0;expand=0;recursiveResize=0;spacingRight=0;container=0;collapsible=0;strokeColor=#1192E8;fillColor=none;" parent="hiCZ41Te97qc9-zwpl-o-306" vertex="1">
          <mxGeometry width="166" height="35" as="geometry">
            <mxRectangle width="670" as="alternateBounds" />
          </mxGeometry>
        </mxCell>
        <mxCell id="hiCZ41Te97qc9-zwpl-o-308" value="Logs bucket" style="text;html=1;strokeColor=none;fillColor=none;align=left;verticalAlign=middle;whiteSpace=wrap;rounded=0;fontFamily=IBM Plex Sans;fontSource=fonts%2FIBMPlexSans-Regular.woff;fontSize=14;container=0;" parent="hiCZ41Te97qc9-zwpl-o-306" vertex="1">
          <mxGeometry x="34" y="8" width="122" height="20" as="geometry" />
        </mxCell>
        <mxCell id="hiCZ41Te97qc9-zwpl-o-311" value="" style="shape=image;aspect=fixed;image=data:image/svg+xml,PHN2ZyBpZD0iaWNvbiIgeG1sbnM9Imh0dHA6Ly93d3cudzMub3JnLzIwMDAvc3ZnIiB3aWR0aD0iMzIiIGhlaWdodD0iMzIiIHZpZXdCb3g9IjAgMCAzMiAzMiI+CiAgPGRlZnM+CiAgICA8c3R5bGU+CiAgICAgIC5jbHMtMSB7CiAgICAgICAgZmlsbDogbm9uZTsKICAgICAgfQogICAgPC9zdHlsZT4KICA8L2RlZnM+CiAgPHBhdGggZD0iTTIzLDI0YTIuOTgsMi45OCwwLDAsMC0yLjAzNzYuODExNWwtNC4wMDM3LTIuNDAyM2EyLjA0NzgsMi4wNDc4LDAsMCwwLDAtLjgxODRsNC4wMDM3LTIuNDAyM2EzLjI0NjMsMy4yNDYzLDAsMSwwLS45MjExLTEuNzc5M2wtNC4wMDM3LDIuNDAyM2EzLDMsMCwxLDAsMCw0LjM3N2w0LjAwMzcsMi40MDIzQTIuOTcyOSwyLjk3MjksMCwwLDAsMjAsMjdhMywzLDAsMSwwLDMtM1ptMC04YTEsMSwwLDEsMS0xLDFBMS4wMDA4LDEuMDAwOCwwLDAsMSwyMywxNlptLTksN2ExLDEsMCwxLDEsMS0xQTEuMDAwOCwxLjAwMDgsMCwwLDEsMTQsMjNabTksNWExLDEsMCwxLDEsMS0xQTEuMDAwOCwxLjAwMDgsMCwwLDEsMjMsMjhaIi8+CiAgPHBhdGggZD0iTTgsMjhINGEyLjAwMjMsMi4wMDIzLDAsMCwxLTItMlY2QTIuMDAyMywyLjAwMjMsMCwwLDEsNCw0aDcuNTg1N0ExLjk4NjUsMS45ODY1LDAsMCwxLDEzLDQuNTg1OUwxNi40MTQzLDhIMjhhMi4wMDIzLDIuMDAyMywwLDAsMSwyLDJ2OEgyOFYxMEgxNS41ODU3bC00LTRINFYyNkg4WiIvPgogIDxyZWN0IGlkPSJfVHJhbnNwYXJlbnRfUmVjdGFuZ2xlXyIgZGF0YS1uYW1lPSImbHQ7VHJhbnNwYXJlbnQgUmVjdGFuZ2xlJmd0OyIgY2xhc3M9ImNscy0xIiB3aWR0aD0iMzIiIGhlaWdodD0iMzIiLz4KPC9zdmc+Cg==;" parent="hiCZ41Te97qc9-zwpl-o-306" vertex="1">
          <mxGeometry x="7" y="5" width="25" height="25" as="geometry" />
        </mxCell>
        <mxCell id="F_u4I9Foxezs0zylaNHF-10" value="" style="rounded=0;whiteSpace=wrap;html=1;fontFamily=IBM Plex Sans;fontSource=fonts%2FIBMPlexSans-Regular.woff;fontSize=14;spacingBottom=-28;spacingTop=0;labelPosition=-100;verticalLabelPosition=top;align=center;verticalAlign=bottom;spacingLeft=9;spacing=0;expand=0;recursiveResize=0;spacingRight=0;container=1;collapsible=0;strokeColor=#1192E8;fillColor=none;" parent="1" vertex="1">
          <mxGeometry x="380" y="50" width="240" height="130" as="geometry">
            <mxRectangle width="670" as="alternateBounds" />
          </mxGeometry>
        </mxCell>
        <mxCell id="F_u4I9Foxezs0zylaNHF-11" value="" style="rounded=0;whiteSpace=wrap;html=1;strokeColor=none;fillColor=#1192E8;fontFamily=IBM Plex Sans;fontSource=fonts%2FIBMPlexSans-Regular.woff;" parent="F_u4I9Foxezs0zylaNHF-10" vertex="1">
          <mxGeometry width="7" height="37" as="geometry" />
        </mxCell>
        <mxCell id="F_u4I9Foxezs0zylaNHF-12" value="IBM Cloud Observability" style="text;html=1;strokeColor=none;fillColor=none;align=left;verticalAlign=middle;whiteSpace=wrap;rounded=0;fontFamily=IBM Plex Sans;fontSource=fonts%2FIBMPlexSans-Regular.woff;fontSize=14;" parent="F_u4I9Foxezs0zylaNHF-10" vertex="1">
          <mxGeometry x="51" y="8" width="163" height="20" as="geometry" />
        </mxCell>
        <mxCell id="F_u4I9Foxezs0zylaNHF-13" value="" style="shape=image;aspect=fixed;image=data:image/svg+xml,PD94bWwgdmVyc2lvbj0iMS4wIiBlbmNvZGluZz0iVVRGLTgiPz4KPHN2ZyB3aWR0aD0iMzNweCIgaGVpZ2h0PSIyNnB4IiB2aWV3Qm94PSIwIDAgMzMgMjYiIHZlcnNpb249IjEuMSIgeG1sbnM9Imh0dHA6Ly93d3cudzMub3JnLzIwMDAvc3ZnIiB4bWxuczp4bGluaz0iaHR0cDovL3d3dy53My5vcmcvMTk5OS94bGluayI+CiAgICA8IS0tIEdlbmVyYXRvcjogU2tldGNoIDUzICg3MjUyMCkgLSBodHRwczovL3NrZXRjaGFwcC5jb20gLS0+CiAgICA8dGl0bGU+Q2xvdWQgU2VydmljZXMgQmxhY2s8L3RpdGxlPgogICAgPGRlc2M+Q3JlYXRlZCB3aXRoIFNrZXRjaC48L2Rlc2M+CiAgICA8ZyBpZD0iUGFnZS0xIiBzdHJva2U9Im5vbmUiIHN0cm9rZS13aWR0aD0iMSIgZmlsbD0ibm9uZSIgZmlsbC1ydWxlPSJldmVub2RkIj4KICAgICAgICA8ZyBpZD0iQ2xvdWQtU2VydmljZXMtQmxhY2siIHRyYW5zZm9ybT0idHJhbnNsYXRlKDAuMDYyNTAwLCAtMS4wMDAwMDApIiBmaWxsPSIjMDAwMDAwIj4KICAgICAgICAgICAgPGcgaWQ9Ikdyb3VwLTMiIHRyYW5zZm9ybT0idHJhbnNsYXRlKDAuMDAwMDAwLCAwLjAwMjAwMCkiPgogICAgICAgICAgICAgICAgPHBhdGggZD0iTTI1LjgyMzEsOS4xMjQgQzI0Ljc4NzEsMy43IDE5LjU1MTEsMC4xNDIgMTQuMTI2MSwxLjE3NyBDMTAuMDk4MSwxLjk0NiA2Ljk0ODEsNS4wOTYgNi4xNzkxLDkuMTI0IEMwLjA5MjEsMTAuMjExIC0yLjk1NzksMTguMzYzIDMuOTY0MSwyMy42MzIgQzQuMjg1MSwyMy44NzcgNC42ODkxLDI0IDUuMDkzMSwyNCBMOC4wMDExLDI0IEw4LjAwMTEsMjIgTDUuNDQ4MSwyMiBDNS4xMDQxLDIyIDQuNzYyMSwyMS44NzcgNC41MTExLDIxLjY0MiBDLTAuMzUzOSwxNy4wODYgMi41ODYxLDExLjMzIDcuMTI0MSwxMS4wMiBMNy45NjExLDEwLjk2MyBMOC4zNTYxLDcuMjk4IEM4LjQwNzEsNi44MzIgOC42MTMxLDYuMzg2IDguOTU3MSw2LjA2NyBDMTUuNjAxMSwtMC4wOTQgMjMuMjc2MSwzLjkzNyAyMy45NTIxLDEwLjEzIEwyNC4wNDIxLDEwLjk2MyBMMjYuOTI2MSwxMS4xNiBDMjcuMjY5MSwxMS4xODQgMjcuNjAxMSwxMS4zMyAyNy44MzUxLDExLjU4MiBDMzIuMzc5MSwxNi40NiAyOS4wNTAxLDIyLjAwMyAyNC41MDExLDIyIEwyNC4wMDExLDIyIEwyNC4wMDExLDI0IEwyNy4yMTUxLDI0IEMyNy42NjExLDI0IDI4LjEwMzEsMjMuODQ4IDI4LjQzNzEsMjMuNTUyIEMzNC45MTQxLDE3LjgxNiAzMS42NjgxLDEwLjE2OCAyNS44MjMxLDkuMTI0IiBpZD0iRmlsbC0xIj48L3BhdGg+CiAgICAgICAgICAgIDwvZz4KICAgICAgICAgICAgPHBhdGggZD0iTTE1LjU3NCwyMi44MjU3IEMxMy45MTcsMjIuODI1NyAxMi41NzQsMjEuNDgyNyAxMi41NzQsMTkuODI1NyBDMTIuNTc0LDE4LjE2ODcgMTMuOTE3LDE2LjgyNTcgMTUuNTc0LDE2LjgyNTcgQzE3LjIzMSwxNi44MjU3IDE4LjU3NCwxOC4xNjg3IDE4LjU3NCwxOS44MjU3IEMxOC41NzIsMjEuNDgxNyAxNy4yMywyMi44MjM3IDE1LjU3NCwyMi44MjU3IEwxNS41NzQsMjIuODI1NyBaIE0yMy4wMDEsMjEuMDAxNyBMMjMuMDAxLDE5LjAwMTcgTDIwLjksMTkuMDAxNyBDMjAuNzcxLDE4LjM3NTcgMjAuNTIzLDE3Ljc4MDcgMjAuMTY4LDE3LjI0ODcgTDIxLjY1OCwxNS43NTk3IEwyMC4yNDQsMTQuMzQ1NyBMMTguNzU0LDE1LjgzNDcgQzE4LjIyMiwxNS40ODA3IDE3LjYyNywxNS4yMzE3IDE3LjAwMSwxNS4xMDI3IEwxNy4wMDEsMTMuMDAxNyBMMTUuMDAxLDEzLjAwMTcgTDE1LjAwMSwxNS4xMDI3IEMxNC4zNzUsMTUuMjMxNyAxMy43OCwxNS40ODA3IDEzLjI0OCwxNS44MzQ3IEwxMS43NTgsMTQuMzQ0NyBMMTAuMzQ1LDE1Ljc1ODcgTDExLjgzNCwxNy4yNDg3IEMxMS40OCwxNy43ODA3IDExLjIzMSwxOC4zNzU3IDExLjEwMiwxOS4wMDE3IEw5LjAwMSwxOS4wMDE3IEw5LjAwMSwyMS4wMDE3IEwxMS4xMDIsMjEuMDAxNyBDMTEuMjMxLDIxLjYyNzcgMTEuNDgsMjIuMjIyNyAxMS44MzQsMjIuNzU0NyBMMTAuMzQ0LDI0LjI0NDcgTDExLjc1OCwyNS42NTg3IEwxMy4yNDgsMjQuMTY4NyBDMTMuNzgsMjQuNTIzNyAxNC4zNzUsMjQuNzcxNyAxNS4wMDEsMjQuOTAwNyBMMTUuMDAxLDI3LjAwMTcgTDE3LjAwMSwyNy4wMDE3IEwxNy4wMDEsMjQuOTAwNyBDMTcuNjI3LDI0Ljc3MTcgMTguMjIyLDI0LjUyMzcgMTguNzU0LDI0LjE2ODcgTDIwLjI0NCwyNS42NTg3IEwyMS42NTgsMjQuMjQ0NyBMMjAuMTY4LDIyLjc1NDcgQzIwLjUyMywyMi4yMjI3IDIwLjc3MSwyMS42Mjc3IDIwLjksMjEuMDAxNyBMMjMuMDAxLDIxLjAwMTcgWiIgaWQ9IkZpbGwtNCI+PC9wYXRoPgogICAgICAgIDwvZz4KICAgIDwvZz4KPC9zdmc+;fontFamily=IBM Plex Sans;fontSource=fonts%2FIBMPlexSans-Regular.woff;" parent="F_u4I9Foxezs0zylaNHF-10" vertex="1">
          <mxGeometry x="20" y="6.65" width="25" height="19.71" as="geometry" />
        </mxCell>
        <mxCell id="hiCZ41Te97qc9-zwpl-o-71" value="" style="group;fontFamily=IBM Plex Sans;fontSource=fonts%2FIBMPlexSans-Regular.woff;" parent="F_u4I9Foxezs0zylaNHF-10" vertex="1" connectable="0">
          <mxGeometry x="20" y="60" width="200" height="35" as="geometry" />
        </mxCell>
        <mxCell id="hiCZ41Te97qc9-zwpl-o-20" value="" style="rounded=0;whiteSpace=wrap;html=1;fontFamily=IBM Plex Sans;fontSource=fonts%2FIBMPlexSans-Regular.woff;fontSize=14;spacingBottom=-28;spacingTop=0;labelPosition=-100;verticalLabelPosition=top;align=center;verticalAlign=bottom;spacingLeft=9;spacing=0;expand=0;recursiveResize=0;spacingRight=0;container=0;collapsible=0;strokeColor=#1192E8;fillColor=none;" parent="hiCZ41Te97qc9-zwpl-o-71" vertex="1">
          <mxGeometry width="200" height="35" as="geometry">
            <mxRectangle width="670" as="alternateBounds" />
          </mxGeometry>
        </mxCell>
        <mxCell id="hiCZ41Te97qc9-zwpl-o-22" value="IBM Cloud Activity Tracker Event Routing" style="text;html=1;strokeColor=none;fillColor=none;align=left;verticalAlign=middle;whiteSpace=wrap;rounded=0;fontFamily=IBM Plex Sans;fontSource=fonts%2FIBMPlexSans-Regular.woff;fontSize=14;" parent="hiCZ41Te97qc9-zwpl-o-71" vertex="1">
          <mxGeometry x="34" y="8" width="156" height="20" as="geometry" />
        </mxCell>
        <mxCell id="hiCZ41Te97qc9-zwpl-o-24" value="" style="shape=image;aspect=fixed;image=data:image/svg+xml,PHN2ZyBpZD0iaWNvbiIgeG1sbnM9Imh0dHA6Ly93d3cudzMub3JnLzIwMDAvc3ZnIiB3aWR0aD0iMzIiIGhlaWdodD0iMzIiIHZpZXdCb3g9IjAgMCAzMiAzMiI+CiAgPGRlZnM+CiAgICA8c3R5bGU+CiAgICAgIC5jbHMtMSB7CiAgICAgICAgZmlsbDogbm9uZTsKICAgICAgfQogICAgPC9zdHlsZT4KICA8L2RlZnM+CiAgPHBvbHlnb24gcG9pbnRzPSIyMSA3IDE2IDIgMTEgNyAxMi40MDkgOC40MTkgMTUgNS44NDcgMTUgMTMgMTcgMTMgMTcgNS43OTQgMTkuNTkxIDguNDE5IDIxIDciLz4KICA8cG9seWdvbiBwb2ludHM9IjIxIDI1IDE2IDMwIDExIDI1IDEyLjQwOSAyMy41ODEgMTUgMjYuMTUzIDE1IDE5IDE3IDE5IDE3IDI2LjIwNiAxOS41OTEgMjMuNTgxIDIxIDI1Ii8+CiAgPHBvbHlnb24gcG9pbnRzPSIyNCAxMSAxOSAxNiAyNCAyMSAyNS40MTkgMTkuNTkxIDIyLjg0NyAxNyAzMCAxNyAzMCAxNSAyMi43OTQgMTUgMjUuNDE5IDEyLjQwOSAyNCAxMSIvPgogIDxwb2x5Z29uIHBvaW50cz0iOCAxMSAxMyAxNiA4IDIxIDYuNTgxIDE5LjU5MSA5LjE1MyAxNyAyIDE3IDIgMTUgOS4yMDYgMTUgNi41ODEgMTIuNDA5IDggMTEiLz4KICA8cmVjdCBpZD0iX1RyYW5zcGFyZW50X1JlY3RhbmdsZV8iIGRhdGEtbmFtZT0iJmx0O1RyYW5zcGFyZW50IFJlY3RhbmdsZSZndDsiIGNsYXNzPSJjbHMtMSIgd2lkdGg9IjMyIiBoZWlnaHQ9IjMyIi8+Cjwvc3ZnPgo=;fontFamily=IBM Plex Sans;fontSource=fonts%2FIBMPlexSans-Regular.woff;" parent="hiCZ41Te97qc9-zwpl-o-71" vertex="1">
          <mxGeometry x="5" y="5.5" width="25" height="25" as="geometry" />
        </mxCell>
        <mxCell id="fKJGzioLh1D1EvW2rPCA-49" value="Account level" style="text;html=1;align=center;verticalAlign=middle;resizable=0;points=[];autosize=1;strokeColor=none;fillColor=none;" vertex="1" parent="F_u4I9Foxezs0zylaNHF-10">
          <mxGeometry x="70" y="30" width="90" height="30" as="geometry" />
        </mxCell>
        <mxCell id="hiCZ41Te97qc9-zwpl-o-133" value="" style="endArrow=classic;html=1;rounded=1;exitX=1;exitY=0.5;exitDx=0;exitDy=0;entryX=0;entryY=0.5;entryDx=0;entryDy=0;fontFamily=IBM Plex Sans;fontSource=fonts%2FIBMPlexSans-Regular.woff;" parent="1" source="hiCZ41Te97qc9-zwpl-o-31" target="hiCZ41Te97qc9-zwpl-o-20" edge="1">
          <mxGeometry relative="1" as="geometry">
            <mxPoint x="50" y="390" as="sourcePoint" />
            <mxPoint x="150" y="390" as="targetPoint" />
            <Array as="points">
              <mxPoint x="350" y="130" />
            </Array>
          </mxGeometry>
        </mxCell>
        <mxCell id="hiCZ41Te97qc9-zwpl-o-134" value="Audit&lt;br&gt;events" style="edgeLabel;resizable=0;html=1;align=left;verticalAlign=middle;fontFamily=IBM Plex Sans;fontSource=fonts%2FIBMPlexSans-Regular.woff;" parent="hiCZ41Te97qc9-zwpl-o-133" connectable="0" vertex="1">
          <mxGeometry relative="1" as="geometry">
            <mxPoint x="-31" y="-20" as="offset" />
          </mxGeometry>
        </mxCell>
        <mxCell id="hiCZ41Te97qc9-zwpl-o-296" value="" style="group" parent="1" vertex="1" connectable="0">
          <mxGeometry x="270" y="340" width="100" height="35" as="geometry" />
        </mxCell>
        <mxCell id="hiCZ41Te97qc9-zwpl-o-282" value="" style="shape=image;aspect=fixed;image=data:image/svg+xml,PHN2ZyBpZD0iaWNvbiIgeG1sbnM9Imh0dHA6Ly93d3cudzMub3JnLzIwMDAvc3ZnIiB2aWV3Qm94PSIwIDAgMzIgMzIiPjxkZWZzPjxzdHlsZT4uY2xzLTF7ZmlsbDpub25lO308L3N0eWxlPjwvZGVmcz48dGl0bGU+ZGVza3RvcDwvdGl0bGU+PHBhdGggZD0iTTI4LDRINEEyLDIsMCwwLDAsMiw2VjIyYTIsMiwwLDAsMCwyLDJoOHY0SDh2MkgyNFYyOEgyMFYyNGg4YTIsMiwwLDAsMCwyLTJWNkEyLDIsMCwwLDAsMjgsNFpNMTgsMjhIMTRWMjRoNFptMTAtNkg0VjZIMjhaIiB0cmFuc2Zvcm09InRyYW5zbGF0ZSgwKSIvPjxyZWN0IGlkPSJfVHJhbnNwYXJlbnRfUmVjdGFuZ2xlXyIgZGF0YS1uYW1lPSImbHQ7VHJhbnNwYXJlbnQgUmVjdGFuZ2xlJmd0OyIgY2xhc3M9ImNscy0xIiB3aWR0aD0iMzIiIGhlaWdodD0iMzIiLz48L3N2Zz4K;" parent="hiCZ41Te97qc9-zwpl-o-296" vertex="1">
          <mxGeometry x="7" y="5" width="25" height="25" as="geometry" />
        </mxCell>
        <mxCell id="hiCZ41Te97qc9-zwpl-o-289" value="" style="rounded=0;whiteSpace=wrap;html=1;fontFamily=IBM Plex Sans;fontSource=fonts%2FIBMPlexSans-Regular.woff;fontSize=14;spacingBottom=-28;spacingTop=0;labelPosition=-100;verticalLabelPosition=top;align=center;verticalAlign=bottom;spacingLeft=9;spacing=0;expand=0;recursiveResize=0;spacingRight=0;container=0;collapsible=0;strokeColor=#1192E8;fillColor=none;" parent="hiCZ41Te97qc9-zwpl-o-296" vertex="1">
          <mxGeometry width="100" height="35" as="geometry">
            <mxRectangle width="670" as="alternateBounds" />
          </mxGeometry>
        </mxCell>
        <mxCell id="hiCZ41Te97qc9-zwpl-o-290" value="Browser" style="text;html=1;strokeColor=none;fillColor=none;align=left;verticalAlign=middle;whiteSpace=wrap;rounded=0;fontFamily=IBM Plex Sans;fontSource=fonts%2FIBMPlexSans-Regular.woff;fontSize=14;container=0;" parent="hiCZ41Te97qc9-zwpl-o-296" vertex="1">
          <mxGeometry x="34" y="8" width="56" height="20" as="geometry" />
        </mxCell>
        <mxCell id="hiCZ41Te97qc9-zwpl-o-295" value="" style="group" parent="1" vertex="1" connectable="0">
          <mxGeometry x="255" y="390" width="130" height="35" as="geometry" />
        </mxCell>
        <mxCell id="hiCZ41Te97qc9-zwpl-o-288" value="" style="shape=image;aspect=fixed;image=data:image/svg+xml,PHN2ZyBpZD0iaWNvbiIgeG1sbnM9Imh0dHA6Ly93d3cudzMub3JnLzIwMDAvc3ZnIiB3aWR0aD0iMzIiIGhlaWdodD0iMzIiIHZpZXdCb3g9IjAgMCAzMiAzMiI+PGRlZnM+PHN0eWxlPi5jbHMtMXtmaWxsOm5vbmU7fTwvc3R5bGU+PC9kZWZzPjx0aXRsZT5zY2hlbWF0aWNzPC90aXRsZT48cGF0aCBkPSJNMjcsMTkuMDAxQTQuMDA1Niw0LjAwNTYsMCwwLDAsMjIuOTk5MSwxNUg5LjAwMTFBMi4wMDMxLDIuMDAzMSwwLDAsMSw3LDEyLjk5OTFWOS44NThBMy45OTQ5LDMuOTk0OSwwLDAsMCw5Ljg1ODEsN2gxMi4yODRhNCw0LDAsMSwwLDAtMkg5Ljg1ODFBMy45OTE2LDMuOTkxNiwwLDEsMCw1LDkuODU4djMuMTQxMUE0LjAwNTcsNC4wMDU3LDAsMCwwLDkuMDAxMSwxN2gxMy45OThBMi4wMDMsMi4wMDMsMCwwLDEsMjUsMTkuMDAxVjIySDIydjNIOS44NTgxYTQsNCwwLDEsMCwwLDJIMjJ2M2g4VjIySDI3Wk0yNiw0YTIsMiwwLDEsMS0yLDJBMi4wMDE5LDIuMDAxOSwwLDAsMSwyNiw0Wk00LDZBMiwyLDAsMSwxLDYsOCwyLjAwMTksMi4wMDE5LDAsMCwxLDQsNlpNNiwyOGEyLDIsMCwxLDEsMi0yQTIuMDAyLDIuMDAyLDAsMCwxLDYsMjhabTIyLTR2NEgyNFYyNFoiLz48cmVjdCBpZD0iX1RyYW5zcGFyZW50X1JlY3RhbmdsZV8iIGRhdGEtbmFtZT0iJmx0O1RyYW5zcGFyZW50IFJlY3RhbmdsZSZndDsiIGNsYXNzPSJjbHMtMSIgd2lkdGg9IjMyIiBoZWlnaHQ9IjMyIi8+PC9zdmc+;" parent="hiCZ41Te97qc9-zwpl-o-295" vertex="1">
          <mxGeometry x="7" y="5" width="25" height="25" as="geometry" />
        </mxCell>
        <mxCell id="hiCZ41Te97qc9-zwpl-o-285" value="" style="rounded=0;whiteSpace=wrap;html=1;fontFamily=IBM Plex Sans;fontSource=fonts%2FIBMPlexSans-Regular.woff;fontSize=14;spacingBottom=-28;spacingTop=0;labelPosition=-100;verticalLabelPosition=top;align=center;verticalAlign=bottom;spacingLeft=9;spacing=0;expand=0;recursiveResize=0;spacingRight=0;container=0;collapsible=0;strokeColor=#1192E8;fillColor=none;" parent="hiCZ41Te97qc9-zwpl-o-295" vertex="1">
          <mxGeometry width="130" height="35" as="geometry">
            <mxRectangle width="670" as="alternateBounds" />
          </mxGeometry>
        </mxCell>
        <mxCell id="hiCZ41Te97qc9-zwpl-o-286" value="Schematics / Terraform" style="text;html=1;strokeColor=none;fillColor=none;align=left;verticalAlign=middle;whiteSpace=wrap;rounded=0;fontFamily=IBM Plex Sans;fontSource=fonts%2FIBMPlexSans-Regular.woff;fontSize=14;container=0;" parent="hiCZ41Te97qc9-zwpl-o-295" vertex="1">
          <mxGeometry x="34" y="8" width="86" height="20" as="geometry" />
        </mxCell>
        <mxCell id="hiCZ41Te97qc9-zwpl-o-297" value="" style="group" parent="1" vertex="1" connectable="0">
          <mxGeometry x="285" y="440" width="70" height="35" as="geometry" />
        </mxCell>
        <mxCell id="hiCZ41Te97qc9-zwpl-o-287" value="" style="shape=image;aspect=fixed;image=data:image/svg+xml,PHN2ZyBpZD0iaWNvbiIgeG1sbnM9Imh0dHA6Ly93d3cudzMub3JnLzIwMDAvc3ZnIiB2aWV3Qm94PSIwIDAgMzIgMzIiPjxkZWZzPjxzdHlsZT4uY2xzLTF7ZmlsbDpub25lO308L3N0eWxlPjwvZGVmcz48dGl0bGU+dGVybWluYWw8L3RpdGxlPjxwYXRoIGQ9Ik0yNiw0SDZBMiwyLDAsMCwwLDQsNlYyNmEyLDIsMCwwLDAsMiwySDI2YTIsMiwwLDAsMCwyLTJWNkEyLDIsMCwwLDAsMjYsNFptMCwydjRINlY2Wk02LDI2VjEySDI2VjI2WiIgdHJhbnNmb3JtPSJ0cmFuc2xhdGUoMCAwLjAxKSIvPjxwb2x5Z29uIHBvaW50cz0iMTAuNzYgMTYuMTggMTMuNTggMTkuMDEgMTAuNzYgMjEuODQgMTIuMTcgMjMuMjUgMTYuNDEgMTkuMDEgMTIuMTcgMTQuNzcgMTAuNzYgMTYuMTgiLz48cmVjdCBpZD0iX1RyYW5zcGFyZW50X1JlY3RhbmdsZV8iIGRhdGEtbmFtZT0iJmx0O1RyYW5zcGFyZW50IFJlY3RhbmdsZSZndDsiIGNsYXNzPSJjbHMtMSIgd2lkdGg9IjMyIiBoZWlnaHQ9IjMyIi8+PC9zdmc+;" parent="hiCZ41Te97qc9-zwpl-o-297" vertex="1">
          <mxGeometry x="7" y="5.5" width="25" height="25" as="geometry" />
        </mxCell>
        <mxCell id="hiCZ41Te97qc9-zwpl-o-291" value="" style="rounded=0;whiteSpace=wrap;html=1;fontFamily=IBM Plex Sans;fontSource=fonts%2FIBMPlexSans-Regular.woff;fontSize=14;spacingBottom=-28;spacingTop=0;labelPosition=-100;verticalLabelPosition=top;align=center;verticalAlign=bottom;spacingLeft=9;spacing=0;expand=0;recursiveResize=0;spacingRight=0;container=0;collapsible=0;strokeColor=#1192E8;fillColor=none;" parent="hiCZ41Te97qc9-zwpl-o-297" vertex="1">
          <mxGeometry width="70" height="35" as="geometry">
            <mxRectangle width="670" as="alternateBounds" />
          </mxGeometry>
        </mxCell>
        <mxCell id="hiCZ41Te97qc9-zwpl-o-292" value="CLI" style="text;html=1;strokeColor=none;fillColor=none;align=left;verticalAlign=middle;whiteSpace=wrap;rounded=0;fontFamily=IBM Plex Sans;fontSource=fonts%2FIBMPlexSans-Regular.woff;fontSize=14;container=0;" parent="hiCZ41Te97qc9-zwpl-o-297" vertex="1">
          <mxGeometry x="34" y="8" width="36" height="20" as="geometry" />
        </mxCell>
        <mxCell id="hiCZ41Te97qc9-zwpl-o-326" value="" style="group" parent="1" vertex="1" connectable="0">
          <mxGeometry x="205" y="650" width="230" height="35" as="geometry" />
        </mxCell>
        <mxCell id="hiCZ41Te97qc9-zwpl-o-300" value="" style="shape=image;aspect=fixed;image=data:image/svg+xml,PD94bWwgdmVyc2lvbj0iMS4wIiBlbmNvZGluZz0iVVRGLTgiPz4KPHN2ZyBpZD0iaWNvbiIgeG1sbnM9Imh0dHA6Ly93d3cudzMub3JnLzIwMDAvc3ZnIiB3aWR0aD0iMzIiIGhlaWdodD0iMzIiIHZpZXdCb3g9IjAgMCAzMiAzMiI+CiAgPGRlZnM+CiAgICA8c3R5bGU+CiAgICAgIC5jbHMtMSB7CiAgICAgICAgZmlsbDogbm9uZTsKICAgICAgfQogICAgPC9zdHlsZT4KICA8L2RlZnM+CiAgPHBhdGggZD0ibTIwLDI3Yy0yLjk3OTUsMC01Ljc2OTMtMS4xNzE5LTcuODU1NS0zLjI5OThsMS40MjgyLTEuNDAwMWMxLjcwNjgsMS43NDExLDMuOTg5NSwyLjcsNi40MjcyLDIuNyw0Ljk2MjYsMCw5LTQuMDM3NCw5LTksMC0yLjM3MDUtLjkxMzgtNC42MDc5LTIuNTczMi02LjMwMDRsMS40MjgyLTEuNDAwMWMyLjAyODEsMi4wNjg2LDMuMTQ1LDQuODAzMywzLjE0NSw3LjcwMDYsMCw2LjA2NTQtNC45MzQ2LDExLTExLDExWiIvPgogIDxjaXJjbGUgY3g9IjI0IiBjeT0iNSIgcj0iMiIvPgogIDxwYXRoIGQ9Im0yMC40MTQxLDE0LjU4NTlsLTMtM2MtLjM3NzQtLjM3NzktLjg3OTktLjU4NTktMS40MTQxLS41ODU5cy0xLjAzNjYuMjA4LTEuNDE0My41ODU5bC0yLjk5OTgsM2MtLjM4OTkuMzg5Ni0uNTg1OS45MDE5LS41ODU5LDEuNDE0MXMuMTk2LDEuMDI0NC41ODU5LDEuNDE0MWwyLjk5OTgsM2MuMzc3Ny4zNzc5Ljg4MDEuNTg1OSwxLjQxNDMuNTg1OXMxLjAzNjYtLjIwOCwxLjQxNDEtLjU4NTlsMy0zYy4zODk5LS4zODk2LjU4NTktLjkwMTkuNTg1OS0xLjQxNDFzLS4xOTYtMS4wMjQ0LS41ODU5LTEuNDE0MVptLTQuNDE0MSw0LjQxNDFsLTMtMywzLTMsMi45OTk4LDMtMi45OTk4LDNaIi8+CiAgPGNpcmNsZSBjeD0iOCIgY3k9IjI3IiByPSIyIi8+CiAgPHBhdGggZD0ibTQuMjk5MywyMy44NTVjLTIuMTI3Ny0yLjA4NjEtMy4yOTkzLTQuODc1Ny0zLjI5OTMtNy44NTVDMSw5LjkzNDYsNS45MzQ2LDUsMTIsNWMyLjk3OTUsMCw1Ljc2OTMsMS4xNzE5LDcuODU1NSwzLjI5OThsLTEuNDI4MiwxLjQwMDFjLTEuNzA2OC0xLjc0MTEtMy45ODk1LTIuNy02LjQyNzItMi43LTQuOTYyNiwwLTksNC4wMzc0LTksOSwwLDIuNDM3Ni45NTg3LDQuNzIwMSwyLjY5OTcsNi40MjdsLTEuNDAwNCwxLjQyOFoiLz4KICA8cmVjdCBpZD0iX1RyYW5zcGFyZW50X1JlY3RhbmdsZV8iIGRhdGEtbmFtZT0iJmFtcDtsdDtUcmFuc3BhcmVudCBSZWN0YW5nbGUmYW1wO2d0OyIgY2xhc3M9ImNscy0xIiB3aWR0aD0iMzIiIGhlaWdodD0iMzIiLz4KPC9zdmc+;" parent="hiCZ41Te97qc9-zwpl-o-326" vertex="1">
          <mxGeometry x="7" y="5" width="25" height="25" as="geometry" />
        </mxCell>
        <mxCell id="hiCZ41Te97qc9-zwpl-o-323" value="" style="rounded=0;whiteSpace=wrap;html=1;fontFamily=IBM Plex Sans;fontSource=fonts%2FIBMPlexSans-Regular.woff;fontSize=14;spacingBottom=-28;spacingTop=0;labelPosition=-100;verticalLabelPosition=top;align=center;verticalAlign=bottom;spacingLeft=9;spacing=0;expand=0;recursiveResize=0;spacingRight=0;container=0;collapsible=0;strokeColor=#1192E8;fillColor=none;" parent="hiCZ41Te97qc9-zwpl-o-326" vertex="1">
          <mxGeometry width="230" height="35" as="geometry">
            <mxRectangle width="670" as="alternateBounds" />
          </mxGeometry>
        </mxCell>
        <mxCell id="hiCZ41Te97qc9-zwpl-o-324" value="IBM Cloud Event Streams" style="text;html=1;strokeColor=none;fillColor=none;align=left;verticalAlign=middle;whiteSpace=wrap;rounded=0;fontFamily=IBM Plex Sans;fontSource=fonts%2FIBMPlexSans-Regular.woff;fontSize=14;container=0;" parent="hiCZ41Te97qc9-zwpl-o-326" vertex="1">
          <mxGeometry x="34" y="8" width="196" height="20" as="geometry" />
        </mxCell>
        <mxCell id="hiCZ41Te97qc9-zwpl-o-325" value="" style="group" parent="1" vertex="1" connectable="0">
          <mxGeometry x="205" y="700" width="230" height="35" as="geometry" />
        </mxCell>
        <mxCell id="hiCZ41Te97qc9-zwpl-o-301" value="" style="shape=image;aspect=fixed;image=data:image/svg+xml,PD94bWwgdmVyc2lvbj0iMS4wIiBlbmNvZGluZz0idXRmLTgiPz4KPCEtLSBHZW5lcmF0b3I6IEFkb2JlIElsbHVzdHJhdG9yIDI2LjMuMSwgU1ZHIEV4cG9ydCBQbHVnLUluIC4gU1ZHIFZlcnNpb246IDYuMDAgQnVpbGQgMCkgIC0tPgo8c3ZnIHZlcnNpb249IjEuMSIgaWQ9Imljb24iIHhtbG5zPSJodHRwOi8vd3d3LnczLm9yZy8yMDAwL3N2ZyIgeG1sbnM6eGxpbms9Imh0dHA6Ly93d3cudzMub3JnLzE5OTkveGxpbmsiIHg9IjBweCIgeT0iMHB4IgoJIHdpZHRoPSIzMnB4IiBoZWlnaHQ9IjMycHgiIHZpZXdCb3g9IjAgMCAzMiAzMiIgc3R5bGU9ImVuYWJsZS1iYWNrZ3JvdW5kOm5ldyAwIDAgMzIgMzI7IiB4bWw6c3BhY2U9InByZXNlcnZlIj4KPHN0eWxlIHR5cGU9InRleHQvY3NzIj4KCS5zdDB7ZmlsbDpub25lO30KPC9zdHlsZT4KPHBhdGggZD0iTTI2LDE5Yy0wLjcsMC0xLjQsMC4zLTEuOSwwLjdsLTQuMy0yLjZjMC4xLTAuNCwwLjItMC43LDAuMi0xLjFjMC0wLjQtMC4xLTAuOC0wLjItMS4xbDQuMy0yLjZjMC41LDAuNCwxLjIsMC43LDEuOSwwLjcKCWMxLjcsMCwzLTEuMywzLTNzLTEuMy0zLTMtM3MtMywxLjMtMywzYzAsMC4yLDAsMC40LDAuMSwwLjZsLTQuMywyLjZDMTguMSwxMi40LDE3LjEsMTIsMTYsMTJjLTAuNiwwLTEuMSwwLjEtMS42LDAuNGwtMy44LTQuOAoJQzEwLjgsNy4xLDExLDYuNiwxMSw2YzAtMS43LTEuMy0zLTMtM1M1LDQuMyw1LDZzMS4zLDMsMywzYzAuMywwLDAuNy0wLjEsMS0wLjJsMy44LDQuOGMtMC4zLDAuNC0wLjUsMC45LTAuNywxLjRINy44CgljLTAuNC0xLjItMS41LTItMi44LTJjLTEuNywwLTMsMS4zLTMsM3MxLjMsMywzLDNjMS4zLDAsMi40LTAuOCwyLjgtMmg0LjNjMC4xLDAuNSwwLjQsMSwwLjcsMS40TDksMjMuMkM4LjcsMjMuMSw4LjMsMjMsOCwyMwoJYy0xLjcsMC0zLDEuMy0zLDNzMS4zLDMsMywzczMtMS4zLDMtM2MwLTAuNi0wLjItMS4xLTAuNS0xLjZsMy44LTQuOGMwLjUsMC4yLDEuMSwwLjQsMS42LDAuNGMxLjEsMCwyLjEtMC40LDIuOC0xLjJsNC4zLDIuNgoJYzAsMC4yLTAuMSwwLjQtMC4xLDAuNmMwLDEuNywxLjMsMywzLDNzMy0xLjMsMy0zUzI3LjcsMTksMjYsMTl6IE0yNiw5YzAuNiwwLDEsMC40LDEsMXMtMC40LDEtMSwxcy0xLTAuNC0xLTFTMjUuNCw5LDI2LDl6IE03LDYKCWMwLTAuNiwwLjQtMSwxLTFzMSwwLjQsMSwxUzguNiw3LDgsN1M3LDYuNiw3LDZ6IE01LDE3Yy0wLjYsMC0xLTAuNC0xLTFjMC0wLjYsMC40LTEsMS0xYzAuNiwwLDEsMC40LDEsMUM2LDE2LjYsNS42LDE3LDUsMTd6CgkgTTgsMjdjLTAuNiwwLTEtMC40LTEtMXMwLjQtMSwxLTFzMSwwLjQsMSwxUzguNiwyNyw4LDI3eiBNMTYsMThjLTEuMSwwLTItMC45LTItMnMwLjktMiwyLTJzMiwwLjksMiwyUzE3LjEsMTgsMTYsMTh6IE0yNiwyMwoJYy0wLjYsMC0xLTAuNC0xLTFzMC40LTEsMS0xczEsMC40LDEsMVMyNi42LDIzLDI2LDIzeiIvPgo8cmVjdCBpZD0iX3gzQ19UcmFuc3BhcmVudF9SZWN0YW5nbGVfeDNFX18yMzJfIiB5PSIwIiBjbGFzcz0ic3QwIiB3aWR0aD0iMzIiIGhlaWdodD0iMzIiLz4KPC9zdmc+Cg==;" parent="hiCZ41Te97qc9-zwpl-o-325" vertex="1">
          <mxGeometry x="7" y="5" width="25" height="25" as="geometry" />
        </mxCell>
        <mxCell id="hiCZ41Te97qc9-zwpl-o-320" value="" style="rounded=0;whiteSpace=wrap;html=1;fontFamily=IBM Plex Sans;fontSource=fonts%2FIBMPlexSans-Regular.woff;fontSize=14;spacingBottom=-28;spacingTop=0;labelPosition=-100;verticalLabelPosition=top;align=center;verticalAlign=bottom;spacingLeft=9;spacing=0;expand=0;recursiveResize=0;spacingRight=0;container=0;collapsible=0;strokeColor=#1192E8;fillColor=none;" parent="hiCZ41Te97qc9-zwpl-o-325" vertex="1">
          <mxGeometry width="230" height="35" as="geometry">
            <mxRectangle width="670" as="alternateBounds" />
          </mxGeometry>
        </mxCell>
        <mxCell id="hiCZ41Te97qc9-zwpl-o-321" value="IBM Cloud Event Notifications" style="text;html=1;strokeColor=none;fillColor=none;align=left;verticalAlign=middle;whiteSpace=wrap;rounded=0;fontFamily=IBM Plex Sans;fontSource=fonts%2FIBMPlexSans-Regular.woff;fontSize=14;container=0;" parent="hiCZ41Te97qc9-zwpl-o-325" vertex="1">
          <mxGeometry x="34" y="8" width="196" height="20" as="geometry" />
        </mxCell>
        <mxCell id="hiCZ41Te97qc9-zwpl-o-73" value="" style="rounded=0;whiteSpace=wrap;html=1;fontFamily=IBM Plex Sans;fontSource=fonts%2FIBMPlexSans-Regular.woff;fontSize=14;spacingBottom=-28;spacingTop=0;labelPosition=-100;verticalLabelPosition=top;align=center;verticalAlign=bottom;spacingLeft=9;spacing=0;expand=0;recursiveResize=0;spacingRight=0;container=1;collapsible=0;strokeColor=#1192E8;fillColor=none;" parent="1" vertex="1">
          <mxGeometry x="760" y="50" width="652.83" height="430" as="geometry">
            <mxRectangle width="670" as="alternateBounds" />
          </mxGeometry>
        </mxCell>
        <mxCell id="hiCZ41Te97qc9-zwpl-o-74" value="" style="rounded=0;whiteSpace=wrap;html=1;strokeColor=none;fillColor=#1192E8;fontFamily=IBM Plex Sans;fontSource=fonts%2FIBMPlexSans-Regular.woff;" parent="hiCZ41Te97qc9-zwpl-o-73" vertex="1">
          <mxGeometry width="7" height="37" as="geometry" />
        </mxCell>
        <mxCell id="hiCZ41Te97qc9-zwpl-o-75" value="IBM Cloud Logs" style="text;html=1;strokeColor=none;fillColor=none;align=left;verticalAlign=middle;whiteSpace=wrap;rounded=0;fontFamily=IBM Plex Sans;fontSource=fonts%2FIBMPlexSans-Regular.woff;fontSize=14;" parent="hiCZ41Te97qc9-zwpl-o-73" vertex="1">
          <mxGeometry x="51" y="8" width="163" height="20" as="geometry" />
        </mxCell>
        <mxCell id="hiCZ41Te97qc9-zwpl-o-81" value="" style="shape=image;aspect=fixed;image=data:image/svg+xml,PHN2ZyB3aWR0aD0iMzIiIGhlaWdodD0iMzIiIHZpZXdCb3g9IjAgMCAzMiAzMiIgZmlsbD0ibm9uZSIgeG1sbnM9Imh0dHA6Ly93d3cudzMub3JnLzIwMDAvc3ZnIj4KPGcgY2xpcC1wYXRoPSJ1cmwoI2NsaXAwXzNfMjYzKSI+CjxtYXNrIGlkPSJtYXNrMF8zXzI2MyIgc3R5bGU9Im1hc2stdHlwZTphbHBoYSIgbWFza1VuaXRzPSJ1c2VyU3BhY2VPblVzZSIgeD0iMiIgeT0iNCIgd2lkdGg9IjI4IiBoZWlnaHQ9IjI2Ij4KPHBhdGggZD0iTTI4IDE2VjIySDRWNkg3VjRINEMzLjQ2OTU3IDQgMi45NjA4NiA0LjIxMDcxIDIuNTg1NzkgNC41ODU3OUMyLjIxMDcxIDQuOTYwODYgMiA1LjQ2OTU3IDIgNlYyMkMyIDIyLjUzMDQgMi4yMTA3MSAyMy4wMzkxIDIuNTg1NzkgMjMuNDE0MkMyLjk2MDg2IDIzLjc4OTMgMy40Njk1NyAyNCA0IDI0SDEyVjI4SDhWMzBIMjRWMjhIMjBWMjRIMjhDMjguNTMwNCAyNCAyOS4wMzkxIDIzLjc4OTMgMjkuNDE0MiAyMy40MTQyQzI5Ljc4OTMgMjMuMDM5MSAzMCAyMi41MzA0IDMwIDIyVjE2SDI4Wk0xOCAyOEgxNFYyNEgxOFYyOFoiIGZpbGw9IndoaXRlIi8+CjxwYXRoIGZpbGwtcnVsZT0iZXZlbm9kZCIgY2xpcC1ydWxlPSJldmVub2RkIiBkPSJNNiA1VjRMMTcgNFY2TDYgNkw2IDVaIiBmaWxsPSJ1cmwoI3BhaW50MF9saW5lYXJfM18yNjMpIi8+CjwvbWFzaz4KPGcgbWFzaz0idXJsKCNtYXNrMF8zXzI2MykiPgo8cmVjdCB3aWR0aD0iMzIiIGhlaWdodD0iMzIiIGZpbGw9IndoaXRlIi8+CjxwYXRoIGQ9Ik0zMiAwSDBWMzJIMzJWMFoiIGZpbGw9InVybCgjcGFpbnQxX2xpbmVhcl8zXzI2MykiLz4KPC9nPgo8cGF0aCBmaWxsLXJ1bGU9ImV2ZW5vZGQiIGNsaXAtcnVsZT0iZXZlbm9kZCIgZD0iTTI0IDJIMTZWNEgyNFYyWk0yNCA2SDE2VjhIMjRWNlpNMjUuNzIgMTEuMThDMjUuMTg5OCAxMC45MjAyIDI0Ljc0OCAxMC41MDk3IDI0LjQ1IDEwSDIyLjI2QzIyLjQ2NTYgMTAuNjUxMSAyMi44MDIzIDExLjI1MzEgMjMuMjQ5NSAxMS43NjkxQzIzLjY5NjcgMTIuMjg1MSAyNC4yNDQ4IDEyLjcwNCAyNC44NiAxM0wyNyAxNEwyOS4xNCAxM0MyOS45OTczIDEyLjU5NCAzMC43MjE1IDExLjk1MjUgMzEuMjI3OSAxMS4xNTA0QzMxLjczNDMgMTAuMzQ4MiAzMi4wMDIxIDkuNDE4NjEgMzIgOC40N1YySDI3VjRIMzBWOC40N0MyOS45OTk0IDkuMDM4MjQgMjkuODM3NCA5LjU5NDYxIDI5LjUzMjkgMTAuMDc0NEMyOS4yMjg0IDEwLjU1NDEgMjguNzkzOSAxMC45Mzc2IDI4LjI4IDExLjE4TDI3IDExLjc5TDI1LjcyIDExLjE4WiIgZmlsbD0iIzAwMUQ2QyIvPgo8L2c+CjxkZWZzPgo8bGluZWFyR3JhZGllbnQgaWQ9InBhaW50MF9saW5lYXJfM18yNjMiIHgxPSI2Ljc4NTcxIiB5MT0iNSIgeDI9IjE3IiB5Mj0iNSIgZ3JhZGllbnRVbml0cz0idXNlclNwYWNlT25Vc2UiPgo8c3RvcCBvZmZzZXQ9IjAuMDQ2ODc1IiBzdG9wLWNvbG9yPSJ3aGl0ZSIvPgo8c3RvcCBvZmZzZXQ9IjAuODIyOTE3IiBzdG9wLWNvbG9yPSJ3aGl0ZSIgc3RvcC1vcGFjaXR5PSIwIi8+CjwvbGluZWFyR3JhZGllbnQ+CjxsaW5lYXJHcmFkaWVudCBpZD0icGFpbnQxX2xpbmVhcl8zXzI2MyIgeDE9IjAiIHkxPSIzMiIgeDI9IjMyIiB5Mj0iMCIgZ3JhZGllbnRVbml0cz0idXNlclNwYWNlT25Vc2UiPgo8c3RvcCBvZmZzZXQ9IjAuMSIgc3RvcC1jb2xvcj0iI0ZBNEQ1NiIvPgo8c3RvcCBvZmZzZXQ9IjAuOSIgc3RvcC1jb2xvcj0iIzlGMTg1MyIvPgo8L2xpbmVhckdyYWRpZW50Pgo8Y2xpcFBhdGggaWQ9ImNsaXAwXzNfMjYzIj4KPHJlY3Qgd2lkdGg9IjMyIiBoZWlnaHQ9IjMyIiBmaWxsPSJ3aGl0ZSIvPgo8L2NsaXBQYXRoPgo8L2RlZnM+Cjwvc3ZnPgo=;fontFamily=IBM Plex Sans;fontSource=fonts%2FIBMPlexSans-Regular.woff;" parent="hiCZ41Te97qc9-zwpl-o-73" vertex="1">
          <mxGeometry x="14" y="6" width="25" height="25" as="geometry" />
        </mxCell>
        <mxCell id="hiCZ41Te97qc9-zwpl-o-172" value="" style="endArrow=classic;html=1;rounded=0;entryX=0;entryY=0.25;entryDx=0;entryDy=0;fontFamily=IBM Plex Sans;fontSource=fonts%2FIBMPlexSans-Regular.woff;exitX=1;exitY=0.5;exitDx=0;exitDy=0;" parent="hiCZ41Te97qc9-zwpl-o-73" source="hiCZ41Te97qc9-zwpl-o-339" target="hiCZ41Te97qc9-zwpl-o-383" edge="1">
          <mxGeometry width="50" height="50" relative="1" as="geometry">
            <mxPoint x="20" y="-150" as="sourcePoint" />
            <mxPoint x="290" y="95" as="targetPoint" />
          </mxGeometry>
        </mxCell>
        <mxCell id="hiCZ41Te97qc9-zwpl-o-173" value="" style="endArrow=classic;startArrow=classic;html=1;rounded=1;entryX=0;entryY=0.75;entryDx=0;entryDy=0;fontFamily=IBM Plex Sans;fontSource=fonts%2FIBMPlexSans-Regular.woff;exitX=1;exitY=0.5;exitDx=0;exitDy=0;" parent="hiCZ41Te97qc9-zwpl-o-73" source="hiCZ41Te97qc9-zwpl-o-343" target="hiCZ41Te97qc9-zwpl-o-383" edge="1">
          <mxGeometry width="50" height="50" relative="1" as="geometry">
            <mxPoint x="154" y="307" as="sourcePoint" />
            <mxPoint x="221" y="218.25" as="targetPoint" />
            <Array as="points">
              <mxPoint x="190" y="308" />
              <mxPoint x="190" y="219" />
            </Array>
          </mxGeometry>
        </mxCell>
        <mxCell id="hiCZ41Te97qc9-zwpl-o-174" value="" style="endArrow=classic;startArrow=classic;html=1;rounded=1;entryX=0.25;entryY=1;entryDx=0;entryDy=0;fontFamily=IBM Plex Sans;fontSource=fonts%2FIBMPlexSans-Regular.woff;exitX=1;exitY=0.5;exitDx=0;exitDy=0;" parent="hiCZ41Te97qc9-zwpl-o-73" source="hiCZ41Te97qc9-zwpl-o-381" target="hiCZ41Te97qc9-zwpl-o-383" edge="1">
          <mxGeometry width="50" height="50" relative="1" as="geometry">
            <mxPoint x="124" y="378" as="sourcePoint" />
            <mxPoint x="290" y="165" as="targetPoint" />
            <Array as="points">
              <mxPoint x="265" y="378" />
            </Array>
          </mxGeometry>
        </mxCell>
        <mxCell id="hiCZ41Te97qc9-zwpl-o-383" value="" style="rounded=0;whiteSpace=wrap;html=1;fontFamily=IBM Plex Sans;fontSource=fonts%2FIBMPlexSans-Regular.woff;fontSize=14;spacingBottom=-28;spacingTop=0;labelPosition=-100;verticalLabelPosition=top;align=center;verticalAlign=bottom;spacingLeft=9;spacing=0;expand=0;recursiveResize=0;spacingRight=0;container=1;collapsible=0;strokeColor=#1192E8;fillColor=none;" parent="hiCZ41Te97qc9-zwpl-o-73" vertex="1">
          <mxGeometry x="210" y="37" width="220" height="243" as="geometry">
            <mxRectangle width="670" as="alternateBounds" />
          </mxGeometry>
        </mxCell>
        <mxCell id="hiCZ41Te97qc9-zwpl-o-384" value="" style="rounded=0;whiteSpace=wrap;html=1;strokeColor=none;fillColor=#1192E8;fontFamily=IBM Plex Sans;fontSource=fonts%2FIBMPlexSans-Regular.woff;" parent="hiCZ41Te97qc9-zwpl-o-383" vertex="1">
          <mxGeometry width="7" height="37" as="geometry" />
        </mxCell>
        <mxCell id="hiCZ41Te97qc9-zwpl-o-385" value="Back end" style="text;html=1;strokeColor=none;fillColor=none;align=left;verticalAlign=middle;whiteSpace=wrap;rounded=0;fontFamily=IBM Plex Sans;fontSource=fonts%2FIBMPlexSans-Regular.woff;fontSize=14;" parent="hiCZ41Te97qc9-zwpl-o-383" vertex="1">
          <mxGeometry x="51" y="8" width="69" height="20" as="geometry" />
        </mxCell>
        <mxCell id="hiCZ41Te97qc9-zwpl-o-386" value="" style="shape=image;aspect=fixed;image=data:image/svg+xml,PHN2ZyB3aWR0aD0iMzIiIGhlaWdodD0iMzIiIHZpZXdCb3g9IjAgMCAzMiAzMiIgZmlsbD0ibm9uZSIgeG1sbnM9Imh0dHA6Ly93d3cudzMub3JnLzIwMDAvc3ZnIj4KPGcgY2xpcC1wYXRoPSJ1cmwoI2NsaXAwXzNfMjYzKSI+CjxtYXNrIGlkPSJtYXNrMF8zXzI2MyIgc3R5bGU9Im1hc2stdHlwZTphbHBoYSIgbWFza1VuaXRzPSJ1c2VyU3BhY2VPblVzZSIgeD0iMiIgeT0iNCIgd2lkdGg9IjI4IiBoZWlnaHQ9IjI2Ij4KPHBhdGggZD0iTTI4IDE2VjIySDRWNkg3VjRINEMzLjQ2OTU3IDQgMi45NjA4NiA0LjIxMDcxIDIuNTg1NzkgNC41ODU3OUMyLjIxMDcxIDQuOTYwODYgMiA1LjQ2OTU3IDIgNlYyMkMyIDIyLjUzMDQgMi4yMTA3MSAyMy4wMzkxIDIuNTg1NzkgMjMuNDE0MkMyLjk2MDg2IDIzLjc4OTMgMy40Njk1NyAyNCA0IDI0SDEyVjI4SDhWMzBIMjRWMjhIMjBWMjRIMjhDMjguNTMwNCAyNCAyOS4wMzkxIDIzLjc4OTMgMjkuNDE0MiAyMy40MTQyQzI5Ljc4OTMgMjMuMDM5MSAzMCAyMi41MzA0IDMwIDIyVjE2SDI4Wk0xOCAyOEgxNFYyNEgxOFYyOFoiIGZpbGw9IndoaXRlIi8+CjxwYXRoIGZpbGwtcnVsZT0iZXZlbm9kZCIgY2xpcC1ydWxlPSJldmVub2RkIiBkPSJNNiA1VjRMMTcgNFY2TDYgNkw2IDVaIiBmaWxsPSJ1cmwoI3BhaW50MF9saW5lYXJfM18yNjMpIi8+CjwvbWFzaz4KPGcgbWFzaz0idXJsKCNtYXNrMF8zXzI2MykiPgo8cmVjdCB3aWR0aD0iMzIiIGhlaWdodD0iMzIiIGZpbGw9IndoaXRlIi8+CjxwYXRoIGQ9Ik0zMiAwSDBWMzJIMzJWMFoiIGZpbGw9InVybCgjcGFpbnQxX2xpbmVhcl8zXzI2MykiLz4KPC9nPgo8cGF0aCBmaWxsLXJ1bGU9ImV2ZW5vZGQiIGNsaXAtcnVsZT0iZXZlbm9kZCIgZD0iTTI0IDJIMTZWNEgyNFYyWk0yNCA2SDE2VjhIMjRWNlpNMjUuNzIgMTEuMThDMjUuMTg5OCAxMC45MjAyIDI0Ljc0OCAxMC41MDk3IDI0LjQ1IDEwSDIyLjI2QzIyLjQ2NTYgMTAuNjUxMSAyMi44MDIzIDExLjI1MzEgMjMuMjQ5NSAxMS43NjkxQzIzLjY5NjcgMTIuMjg1MSAyNC4yNDQ4IDEyLjcwNCAyNC44NiAxM0wyNyAxNEwyOS4xNCAxM0MyOS45OTczIDEyLjU5NCAzMC43MjE1IDExLjk1MjUgMzEuMjI3OSAxMS4xNTA0QzMxLjczNDMgMTAuMzQ4MiAzMi4wMDIxIDkuNDE4NjEgMzIgOC40N1YySDI3VjRIMzBWOC40N0MyOS45OTk0IDkuMDM4MjQgMjkuODM3NCA5LjU5NDYxIDI5LjUzMjkgMTAuMDc0NEMyOS4yMjg0IDEwLjU1NDEgMjguNzkzOSAxMC45Mzc2IDI4LjI4IDExLjE4TDI3IDExLjc5TDI1LjcyIDExLjE4WiIgZmlsbD0iIzAwMUQ2QyIvPgo8L2c+CjxkZWZzPgo8bGluZWFyR3JhZGllbnQgaWQ9InBhaW50MF9saW5lYXJfM18yNjMiIHgxPSI2Ljc4NTcxIiB5MT0iNSIgeDI9IjE3IiB5Mj0iNSIgZ3JhZGllbnRVbml0cz0idXNlclNwYWNlT25Vc2UiPgo8c3RvcCBvZmZzZXQ9IjAuMDQ2ODc1IiBzdG9wLWNvbG9yPSJ3aGl0ZSIvPgo8c3RvcCBvZmZzZXQ9IjAuODIyOTE3IiBzdG9wLWNvbG9yPSJ3aGl0ZSIgc3RvcC1vcGFjaXR5PSIwIi8+CjwvbGluZWFyR3JhZGllbnQ+CjxsaW5lYXJHcmFkaWVudCBpZD0icGFpbnQxX2xpbmVhcl8zXzI2MyIgeDE9IjAiIHkxPSIzMiIgeDI9IjMyIiB5Mj0iMCIgZ3JhZGllbnRVbml0cz0idXNlclNwYWNlT25Vc2UiPgo8c3RvcCBvZmZzZXQ9IjAuMSIgc3RvcC1jb2xvcj0iI0ZBNEQ1NiIvPgo8c3RvcCBvZmZzZXQ9IjAuOSIgc3RvcC1jb2xvcj0iIzlGMTg1MyIvPgo8L2xpbmVhckdyYWRpZW50Pgo8Y2xpcFBhdGggaWQ9ImNsaXAwXzNfMjYzIj4KPHJlY3Qgd2lkdGg9IjMyIiBoZWlnaHQ9IjMyIiBmaWxsPSJ3aGl0ZSIvPgo8L2NsaXBQYXRoPgo8L2RlZnM+Cjwvc3ZnPgo=;fontFamily=IBM Plex Sans;fontSource=fonts%2FIBMPlexSans-Regular.woff;" parent="hiCZ41Te97qc9-zwpl-o-383" vertex="1">
          <mxGeometry x="14" y="6" width="25" height="25" as="geometry" />
        </mxCell>
        <mxCell id="hiCZ41Te97qc9-zwpl-o-416" value="" style="group" parent="hiCZ41Te97qc9-zwpl-o-383" vertex="1" connectable="0">
          <mxGeometry x="30" y="93" width="160" height="35" as="geometry" />
        </mxCell>
        <mxCell id="hiCZ41Te97qc9-zwpl-o-404" value="" style="rounded=0;whiteSpace=wrap;html=1;fontFamily=IBM Plex Sans;fontSource=fonts%2FIBMPlexSans-Regular.woff;fontSize=14;spacingBottom=-28;spacingTop=0;labelPosition=-100;verticalLabelPosition=top;align=center;verticalAlign=bottom;spacingLeft=9;spacing=0;expand=0;recursiveResize=0;spacingRight=0;container=0;collapsible=0;strokeColor=#1192E8;fillColor=none;" parent="hiCZ41Te97qc9-zwpl-o-416" vertex="1">
          <mxGeometry width="160" height="35" as="geometry">
            <mxRectangle width="670" as="alternateBounds" />
          </mxGeometry>
        </mxCell>
        <mxCell id="hiCZ41Te97qc9-zwpl-o-405" value="Priority insights" style="text;html=1;strokeColor=none;fillColor=none;align=left;verticalAlign=middle;whiteSpace=wrap;rounded=0;fontFamily=IBM Plex Sans;fontSource=fonts%2FIBMPlexSans-Regular.woff;fontSize=14;container=0;" parent="hiCZ41Te97qc9-zwpl-o-416" vertex="1">
          <mxGeometry x="34" y="8" width="116" height="20" as="geometry" />
        </mxCell>
        <mxCell id="hiCZ41Te97qc9-zwpl-o-406" value="" style="shape=image;aspect=fixed;image=data:image/svg+xml,PD94bWwgdmVyc2lvbj0iMS4wIiBlbmNvZGluZz0iaXNvLTg4NTktMSI/Pgo8IS0tIEdlbmVyYXRvcjogQWRvYmUgSWxsdXN0cmF0b3IgMjQuMS4yLCBTVkcgRXhwb3J0IFBsdWctSW4gLiBTVkcgVmVyc2lvbjogNi4wMCBCdWlsZCAwKSAgLS0+CjxzdmcgdmVyc2lvbj0iMS4xIiBpZD0iTGF5ZXJfMSIgeG1sbnM9Imh0dHA6Ly93d3cudzMub3JnLzIwMDAvc3ZnIiB4bWxuczp4bGluaz0iaHR0cDovL3d3dy53My5vcmcvMTk5OS94bGluayIgeD0iMHB4IiB5PSIwcHgiCgkgdmlld0JveD0iMCAwIDMyIDMyIiBzdHlsZT0iZW5hYmxlLWJhY2tncm91bmQ6bmV3IDAgMCAzMiAzMjsiIHhtbDpzcGFjZT0icHJlc2VydmUiPgo8cGF0aCBpZD0icHJvY2Vzc18xXyIgZD0iTTE3LjM4LDIzLjM2aC0yLjc2Yy0wLjE5OSwwLTAuMzYtMC4xNjEtMC4zNi0wLjM2di0xLjU2N2wtMC44NjktMC4zNjNsLTEuMTExLDEuMTExCgljLTAuMDY3LDAuMDY3LTAuMTU5LDAuMTA1LTAuMjU0LDAuMTA1bDAsMGMtMC4wOTYsMC0wLjE4Ny0wLjAzOC0wLjI1NC0wLjEwNUw5LjgyLDIwLjIyOWMtMC4xNDEtMC4xNDEtMC4xNDEtMC4zNjksMC0wLjUxCglsMS4xMDgtMS4xMDdsLTAuMzU3LTAuODcxSDljLTAuMTk5LDAtMC4zNi0wLjE2MS0wLjM2LTAuMzZ2LTIuNzZjMC0wLjE5OSwwLjE2MS0wLjM2LDAuMzYtMC4zNmgxLjU2N2wwLjM2My0wLjg2OUw5LjgyLDEyLjI4CgljLTAuMTQtMC4xNDEtMC4xNC0wLjM2OCwwLTAuNTA5bDEuOTUxLTEuOTUyYzAuMTM1LTAuMTM2LDAuMzc0LTAuMTM2LDAuNTA5LDBsMS4xMDgsMS4xMDlsMC44NzItMC4zNTdWOQoJYzAtMC4xOTksMC4xNjEtMC4zNiwwLjM2LTAuMzZoMi43NmMwLjE5OSwwLDAuMzYsMC4xNjEsMC4zNiwwLjM2djEuNTY3bDAuODY4LDAuMzYzbDEuMTEtMS4xMTFjMC4xMzUtMC4xMzUsMC4zNzUtMC4xMzYsMC41MSwwCglsMS45NTIsMS45NTJjMC4wNjcsMC4wNjcsMC4xMDUsMC4xNTksMC4xMDUsMC4yNTRjMCwwLjA5Ni0wLjAzOCwwLjE4Ny0wLjEwNSwwLjI1NGwtMS4xMDksMS4xMDhsMC4zNTcsMC44NzJIMjMKCWMwLjE5OSwwLDAuMzYsMC4xNjEsMC4zNiwwLjM2djIuNzZjMCwwLjE5OS0wLjE2MSwwLjM2LTAuMzYsMC4zNmgtMS41NjdsLTAuMzYzLDAuODY4bDEuMTExLDEuMTEKCWMwLjA2NywwLjA2NywwLjEwNSwwLjE1OSwwLjEwNSwwLjI1NXMtMC4wMzgsMC4xODgtMC4xMDUsMC4yNTVsLTEuOTUyLDEuOTUyYy0wLjA2NywwLjA2Ny0wLjE1OSwwLjEwNS0wLjI1NSwwLjEwNWwwLDAKCWMtMC4wOTYsMC0wLjE4OC0wLjAzOC0wLjI1NS0wLjEwNWwtMS4xMDctMS4xMDlsLTAuODcxLDAuMzU3VjIzQzE3Ljc0LDIzLjE5OSwxNy41NzksMjMuMzYsMTcuMzgsMjMuMzZ6IE0xNC45OCwyMi42NGgyLjA0di0xLjQ1MgoJYzAtMC4xNDYsMC4wODktMC4yNzcsMC4yMjQtMC4zMzNsMS4zMTYtMC41NGMwLjEzNC0wLjA1NywwLjI4OC0wLjAyNCwwLjM5MiwwLjA3OGwxLjAyMiwxLjAyNGwxLjQ0My0xLjQ0M2wtMS4wMjgtMS4wMjYKCWMtMC4xMDMtMC4xMDQtMC4xMzQtMC4yNTktMC4wNzctMC4zOTRsMC41NS0xLjMxMmMwLjA1Ni0wLjEzNCwwLjE4Ny0wLjIyMiwwLjMzMi0wLjIyMmgxLjQ0NnYtMi4wNGgtMS40NTIKCWMtMC4xNDYsMC0wLjI3Ny0wLjA4OC0wLjMzMy0wLjIyM2wtMC41NC0xLjMxNmMtMC4wNTUtMC4xMzQtMC4wMjQtMC4yODksMC4wNzgtMC4zOTFsMS4wMjQtMS4wMjNsLTEuNDQzLTEuNDQzbC0xLjAyNiwxLjAyNwoJYy0wLjEwNCwwLjEwMy0wLjI1OSwwLjEzNS0wLjM5NCwwLjA3OGwtMS4zMTItMC41NDljLTAuMTM0LTAuMDU2LTAuMjIyLTAuMTg3LTAuMjIyLTAuMzMyVjkuMzZoLTIuMDR2MS40NTIKCWMwLDAuMTQ2LTAuMDg4LDAuMjc4LTAuMjIzLDAuMzMzbC0xLjMxNiwwLjU0Yy0wLjEzNSwwLjA1NC0wLjI4OCwwLjAyNC0wLjM5MS0wLjA3OWwtMS4wMjMtMS4wMjNsLTEuNDQyLDEuNDQzbDEuMDI3LDEuMDI4CgljMC4xMDMsMC4xMDMsMC4xMzQsMC4yNTksMC4wNzcsMC4zOTRMMTEuMTQsMTQuNzZjLTAuMDU2LDAuMTM0LTAuMTg3LDAuMjIxLTAuMzMyLDAuMjIxSDkuMzZ2Mi4wNGgxLjQ1MgoJYzAuMTQ2LDAsMC4yNzgsMC4wODksMC4zMzMsMC4yMjRsMC41NCwxLjMxNmMwLjA1NSwwLjEzNSwwLjAyNCwwLjI4OS0wLjA3OSwwLjM5MmwtMS4wMjIsMS4wMjJsMS40NDIsMS40NDNsMS4wMjgtMS4wMjgKCWMwLjEwNC0wLjEwNCwwLjI1OS0wLjEzMywwLjM5NC0wLjA3N2wxLjMxMiwwLjU1YzAuMTM0LDAuMDU2LDAuMjIxLDAuMTg3LDAuMjIxLDAuMzMyTDE0Ljk4LDIyLjY0TDE0Ljk4LDIyLjY0eiBNMTYsMTkuMzYKCWMtMS44NTMsMC0zLjM2LTEuNTA4LTMuMzYtMy4zNnMxLjUwNy0zLjM2LDMuMzYtMy4zNnMzLjM2LDEuNTA3LDMuMzYsMy4zNlMxNy44NTMsMTkuMzYsMTYsMTkuMzZ6IE0xNiwxMy4zNgoJYy0xLjQ1NiwwLTIuNjQsMS4xODUtMi42NCwyLjY0YzAsMS40NTYsMS4xODUsMi42NCwyLjY0LDIuNjRjMS40NTYsMCwyLjY0LTEuMTg0LDIuNjQtMi42NFMxNy40NTYsMTMuMzYsMTYsMTMuMzZ6IE0xNiwzMS4zNgoJYy00LjUyOSwwLTguNzE2LTEuOTMzLTExLjY0LTUuMzM4VjMwSDMuNjR2LTUuMzZIOXYwLjcyMUg0Ljc0M0M3LjUzNiwyOC43MjUsMTEuNTk4LDMwLjY0LDE2LDMwLjY0CgljOC4wNzIsMCwxNC42NC02LjU2NywxNC42NC0xNC42NGgwLjcyMUMzMS4zNiwyNC40NywyNC40NywzMS4zNiwxNiwzMS4zNnogTTEuMzYsMTZIMC42NEMwLjY0LDcuNTMsNy41MywwLjY0LDE2LDAuNjQKCWM0LjUyOSwwLDguNzE2LDEuOTMzLDExLjY0LDUuMzM3VjJoMC43MjF2NS4zNkgyM1Y2LjY0aDQuMjU3QzI0LjQ2NCwzLjI3NSwyMC40MDEsMS4zNiwxNiwxLjM2QzcuOTI3LDEuMzYsMS4zNiw3LjkyNywxLjM2LDE2eiIvPgo8cmVjdCBpZD0iX1RyYW5zcGFyZW50X1JlY3RhbmdsZSIgc3R5bGU9ImZpbGw6bm9uZTsiIHdpZHRoPSIzMiIgaGVpZ2h0PSIzMiIvPgo8L3N2Zz4K;container=0;fontFamily=IBM Plex Sans;fontSource=fonts%2FIBMPlexSans-Regular.woff;" parent="hiCZ41Te97qc9-zwpl-o-416" vertex="1">
          <mxGeometry x="7" y="5" width="25" height="25" as="geometry" />
        </mxCell>
        <mxCell id="hiCZ41Te97qc9-zwpl-o-417" value="" style="group" parent="hiCZ41Te97qc9-zwpl-o-383" vertex="1" connectable="0">
          <mxGeometry x="30" y="143" width="160" height="35" as="geometry" />
        </mxCell>
        <mxCell id="hiCZ41Te97qc9-zwpl-o-408" value="" style="rounded=0;whiteSpace=wrap;html=1;fontFamily=IBM Plex Sans;fontSource=fonts%2FIBMPlexSans-Regular.woff;fontSize=14;spacingBottom=-28;spacingTop=0;labelPosition=-100;verticalLabelPosition=top;align=center;verticalAlign=bottom;spacingLeft=9;spacing=0;expand=0;recursiveResize=0;spacingRight=0;container=0;collapsible=0;strokeColor=#1192E8;fillColor=none;" parent="hiCZ41Te97qc9-zwpl-o-417" vertex="1">
          <mxGeometry width="160" height="35" as="geometry">
            <mxRectangle width="670" as="alternateBounds" />
          </mxGeometry>
        </mxCell>
        <mxCell id="hiCZ41Te97qc9-zwpl-o-409" value="Analyze and alert" style="text;html=1;strokeColor=none;fillColor=none;align=left;verticalAlign=middle;whiteSpace=wrap;rounded=0;fontFamily=IBM Plex Sans;fontSource=fonts%2FIBMPlexSans-Regular.woff;fontSize=14;container=0;" parent="hiCZ41Te97qc9-zwpl-o-417" vertex="1">
          <mxGeometry x="34" y="8" width="116" height="20" as="geometry" />
        </mxCell>
        <mxCell id="hiCZ41Te97qc9-zwpl-o-410" value="" style="shape=image;aspect=fixed;image=data:image/svg+xml,PD94bWwgdmVyc2lvbj0iMS4wIiBlbmNvZGluZz0iaXNvLTg4NTktMSI/Pgo8IS0tIEdlbmVyYXRvcjogQWRvYmUgSWxsdXN0cmF0b3IgMjQuMS4yLCBTVkcgRXhwb3J0IFBsdWctSW4gLiBTVkcgVmVyc2lvbjogNi4wMCBCdWlsZCAwKSAgLS0+CjxzdmcgdmVyc2lvbj0iMS4xIiBpZD0iTGF5ZXJfMSIgeG1sbnM9Imh0dHA6Ly93d3cudzMub3JnLzIwMDAvc3ZnIiB4bWxuczp4bGluaz0iaHR0cDovL3d3dy53My5vcmcvMTk5OS94bGluayIgeD0iMHB4IiB5PSIwcHgiCgkgdmlld0JveD0iMCAwIDMyIDMyIiBzdHlsZT0iZW5hYmxlLWJhY2tncm91bmQ6bmV3IDAgMCAzMiAzMjsiIHhtbDpzcGFjZT0icHJlc2VydmUiPgo8cGF0aCBpZD0icHJvY2Vzc18xXyIgZD0iTTE3LjM4LDIzLjM2aC0yLjc2Yy0wLjE5OSwwLTAuMzYtMC4xNjEtMC4zNi0wLjM2di0xLjU2N2wtMC44NjktMC4zNjNsLTEuMTExLDEuMTExCgljLTAuMDY3LDAuMDY3LTAuMTU5LDAuMTA1LTAuMjU0LDAuMTA1bDAsMGMtMC4wOTYsMC0wLjE4Ny0wLjAzOC0wLjI1NC0wLjEwNUw5LjgyLDIwLjIyOWMtMC4xNDEtMC4xNDEtMC4xNDEtMC4zNjksMC0wLjUxCglsMS4xMDgtMS4xMDdsLTAuMzU3LTAuODcxSDljLTAuMTk5LDAtMC4zNi0wLjE2MS0wLjM2LTAuMzZ2LTIuNzZjMC0wLjE5OSwwLjE2MS0wLjM2LDAuMzYtMC4zNmgxLjU2N2wwLjM2My0wLjg2OUw5LjgyLDEyLjI4CgljLTAuMTQtMC4xNDEtMC4xNC0wLjM2OCwwLTAuNTA5bDEuOTUxLTEuOTUyYzAuMTM1LTAuMTM2LDAuMzc0LTAuMTM2LDAuNTA5LDBsMS4xMDgsMS4xMDlsMC44NzItMC4zNTdWOQoJYzAtMC4xOTksMC4xNjEtMC4zNiwwLjM2LTAuMzZoMi43NmMwLjE5OSwwLDAuMzYsMC4xNjEsMC4zNiwwLjM2djEuNTY3bDAuODY4LDAuMzYzbDEuMTEtMS4xMTFjMC4xMzUtMC4xMzUsMC4zNzUtMC4xMzYsMC41MSwwCglsMS45NTIsMS45NTJjMC4wNjcsMC4wNjcsMC4xMDUsMC4xNTksMC4xMDUsMC4yNTRjMCwwLjA5Ni0wLjAzOCwwLjE4Ny0wLjEwNSwwLjI1NGwtMS4xMDksMS4xMDhsMC4zNTcsMC44NzJIMjMKCWMwLjE5OSwwLDAuMzYsMC4xNjEsMC4zNiwwLjM2djIuNzZjMCwwLjE5OS0wLjE2MSwwLjM2LTAuMzYsMC4zNmgtMS41NjdsLTAuMzYzLDAuODY4bDEuMTExLDEuMTEKCWMwLjA2NywwLjA2NywwLjEwNSwwLjE1OSwwLjEwNSwwLjI1NXMtMC4wMzgsMC4xODgtMC4xMDUsMC4yNTVsLTEuOTUyLDEuOTUyYy0wLjA2NywwLjA2Ny0wLjE1OSwwLjEwNS0wLjI1NSwwLjEwNWwwLDAKCWMtMC4wOTYsMC0wLjE4OC0wLjAzOC0wLjI1NS0wLjEwNWwtMS4xMDctMS4xMDlsLTAuODcxLDAuMzU3VjIzQzE3Ljc0LDIzLjE5OSwxNy41NzksMjMuMzYsMTcuMzgsMjMuMzZ6IE0xNC45OCwyMi42NGgyLjA0di0xLjQ1MgoJYzAtMC4xNDYsMC4wODktMC4yNzcsMC4yMjQtMC4zMzNsMS4zMTYtMC41NGMwLjEzNC0wLjA1NywwLjI4OC0wLjAyNCwwLjM5MiwwLjA3OGwxLjAyMiwxLjAyNGwxLjQ0My0xLjQ0M2wtMS4wMjgtMS4wMjYKCWMtMC4xMDMtMC4xMDQtMC4xMzQtMC4yNTktMC4wNzctMC4zOTRsMC41NS0xLjMxMmMwLjA1Ni0wLjEzNCwwLjE4Ny0wLjIyMiwwLjMzMi0wLjIyMmgxLjQ0NnYtMi4wNGgtMS40NTIKCWMtMC4xNDYsMC0wLjI3Ny0wLjA4OC0wLjMzMy0wLjIyM2wtMC41NC0xLjMxNmMtMC4wNTUtMC4xMzQtMC4wMjQtMC4yODksMC4wNzgtMC4zOTFsMS4wMjQtMS4wMjNsLTEuNDQzLTEuNDQzbC0xLjAyNiwxLjAyNwoJYy0wLjEwNCwwLjEwMy0wLjI1OSwwLjEzNS0wLjM5NCwwLjA3OGwtMS4zMTItMC41NDljLTAuMTM0LTAuMDU2LTAuMjIyLTAuMTg3LTAuMjIyLTAuMzMyVjkuMzZoLTIuMDR2MS40NTIKCWMwLDAuMTQ2LTAuMDg4LDAuMjc4LTAuMjIzLDAuMzMzbC0xLjMxNiwwLjU0Yy0wLjEzNSwwLjA1NC0wLjI4OCwwLjAyNC0wLjM5MS0wLjA3OWwtMS4wMjMtMS4wMjNsLTEuNDQyLDEuNDQzbDEuMDI3LDEuMDI4CgljMC4xMDMsMC4xMDMsMC4xMzQsMC4yNTksMC4wNzcsMC4zOTRMMTEuMTQsMTQuNzZjLTAuMDU2LDAuMTM0LTAuMTg3LDAuMjIxLTAuMzMyLDAuMjIxSDkuMzZ2Mi4wNGgxLjQ1MgoJYzAuMTQ2LDAsMC4yNzgsMC4wODksMC4zMzMsMC4yMjRsMC41NCwxLjMxNmMwLjA1NSwwLjEzNSwwLjAyNCwwLjI4OS0wLjA3OSwwLjM5MmwtMS4wMjIsMS4wMjJsMS40NDIsMS40NDNsMS4wMjgtMS4wMjgKCWMwLjEwNC0wLjEwNCwwLjI1OS0wLjEzMywwLjM5NC0wLjA3N2wxLjMxMiwwLjU1YzAuMTM0LDAuMDU2LDAuMjIxLDAuMTg3LDAuMjIxLDAuMzMyTDE0Ljk4LDIyLjY0TDE0Ljk4LDIyLjY0eiBNMTYsMTkuMzYKCWMtMS44NTMsMC0zLjM2LTEuNTA4LTMuMzYtMy4zNnMxLjUwNy0zLjM2LDMuMzYtMy4zNnMzLjM2LDEuNTA3LDMuMzYsMy4zNlMxNy44NTMsMTkuMzYsMTYsMTkuMzZ6IE0xNiwxMy4zNgoJYy0xLjQ1NiwwLTIuNjQsMS4xODUtMi42NCwyLjY0YzAsMS40NTYsMS4xODUsMi42NCwyLjY0LDIuNjRjMS40NTYsMCwyLjY0LTEuMTg0LDIuNjQtMi42NFMxNy40NTYsMTMuMzYsMTYsMTMuMzZ6IE0xNiwzMS4zNgoJYy00LjUyOSwwLTguNzE2LTEuOTMzLTExLjY0LTUuMzM4VjMwSDMuNjR2LTUuMzZIOXYwLjcyMUg0Ljc0M0M3LjUzNiwyOC43MjUsMTEuNTk4LDMwLjY0LDE2LDMwLjY0CgljOC4wNzIsMCwxNC42NC02LjU2NywxNC42NC0xNC42NGgwLjcyMUMzMS4zNiwyNC40NywyNC40NywzMS4zNiwxNiwzMS4zNnogTTEuMzYsMTZIMC42NEMwLjY0LDcuNTMsNy41MywwLjY0LDE2LDAuNjQKCWM0LjUyOSwwLDguNzE2LDEuOTMzLDExLjY0LDUuMzM3VjJoMC43MjF2NS4zNkgyM1Y2LjY0aDQuMjU3QzI0LjQ2NCwzLjI3NSwyMC40MDEsMS4zNiwxNiwxLjM2QzcuOTI3LDEuMzYsMS4zNiw3LjkyNywxLjM2LDE2eiIvPgo8cmVjdCBpZD0iX1RyYW5zcGFyZW50X1JlY3RhbmdsZSIgc3R5bGU9ImZpbGw6bm9uZTsiIHdpZHRoPSIzMiIgaGVpZ2h0PSIzMiIvPgo8L3N2Zz4K;container=0;fontFamily=IBM Plex Sans;fontSource=fonts%2FIBMPlexSans-Regular.woff;" parent="hiCZ41Te97qc9-zwpl-o-417" vertex="1">
          <mxGeometry x="7" y="5" width="25" height="25" as="geometry" />
        </mxCell>
        <mxCell id="hiCZ41Te97qc9-zwpl-o-418" value="" style="group" parent="hiCZ41Te97qc9-zwpl-o-383" vertex="1" connectable="0">
          <mxGeometry x="30" y="193" width="160" height="35" as="geometry" />
        </mxCell>
        <mxCell id="hiCZ41Te97qc9-zwpl-o-412" value="" style="rounded=0;whiteSpace=wrap;html=1;fontFamily=IBM Plex Sans;fontSource=fonts%2FIBMPlexSans-Regular.woff;fontSize=14;spacingBottom=-28;spacingTop=0;labelPosition=-100;verticalLabelPosition=top;align=center;verticalAlign=bottom;spacingLeft=9;spacing=0;expand=0;recursiveResize=0;spacingRight=0;container=0;collapsible=0;strokeColor=#1192E8;fillColor=none;" parent="hiCZ41Te97qc9-zwpl-o-418" vertex="1">
          <mxGeometry width="160" height="35" as="geometry">
            <mxRectangle width="670" as="alternateBounds" />
          </mxGeometry>
        </mxCell>
        <mxCell id="hiCZ41Te97qc9-zwpl-o-413" value="Store and search" style="text;html=1;strokeColor=none;fillColor=none;align=left;verticalAlign=middle;whiteSpace=wrap;rounded=0;fontFamily=IBM Plex Sans;fontSource=fonts%2FIBMPlexSans-Regular.woff;fontSize=14;container=0;" parent="hiCZ41Te97qc9-zwpl-o-418" vertex="1">
          <mxGeometry x="34" y="8" width="116" height="20" as="geometry" />
        </mxCell>
        <mxCell id="hiCZ41Te97qc9-zwpl-o-414" value="" style="shape=image;aspect=fixed;image=data:image/svg+xml,PD94bWwgdmVyc2lvbj0iMS4wIiBlbmNvZGluZz0iaXNvLTg4NTktMSI/Pgo8IS0tIEdlbmVyYXRvcjogQWRvYmUgSWxsdXN0cmF0b3IgMjQuMS4yLCBTVkcgRXhwb3J0IFBsdWctSW4gLiBTVkcgVmVyc2lvbjogNi4wMCBCdWlsZCAwKSAgLS0+CjxzdmcgdmVyc2lvbj0iMS4xIiBpZD0iTGF5ZXJfMSIgeG1sbnM9Imh0dHA6Ly93d3cudzMub3JnLzIwMDAvc3ZnIiB4bWxuczp4bGluaz0iaHR0cDovL3d3dy53My5vcmcvMTk5OS94bGluayIgeD0iMHB4IiB5PSIwcHgiCgkgdmlld0JveD0iMCAwIDMyIDMyIiBzdHlsZT0iZW5hYmxlLWJhY2tncm91bmQ6bmV3IDAgMCAzMiAzMjsiIHhtbDpzcGFjZT0icHJlc2VydmUiPgo8cGF0aCBpZD0icHJvY2Vzc18xXyIgZD0iTTE3LjM4LDIzLjM2aC0yLjc2Yy0wLjE5OSwwLTAuMzYtMC4xNjEtMC4zNi0wLjM2di0xLjU2N2wtMC44NjktMC4zNjNsLTEuMTExLDEuMTExCgljLTAuMDY3LDAuMDY3LTAuMTU5LDAuMTA1LTAuMjU0LDAuMTA1bDAsMGMtMC4wOTYsMC0wLjE4Ny0wLjAzOC0wLjI1NC0wLjEwNUw5LjgyLDIwLjIyOWMtMC4xNDEtMC4xNDEtMC4xNDEtMC4zNjksMC0wLjUxCglsMS4xMDgtMS4xMDdsLTAuMzU3LTAuODcxSDljLTAuMTk5LDAtMC4zNi0wLjE2MS0wLjM2LTAuMzZ2LTIuNzZjMC0wLjE5OSwwLjE2MS0wLjM2LDAuMzYtMC4zNmgxLjU2N2wwLjM2My0wLjg2OUw5LjgyLDEyLjI4CgljLTAuMTQtMC4xNDEtMC4xNC0wLjM2OCwwLTAuNTA5bDEuOTUxLTEuOTUyYzAuMTM1LTAuMTM2LDAuMzc0LTAuMTM2LDAuNTA5LDBsMS4xMDgsMS4xMDlsMC44NzItMC4zNTdWOQoJYzAtMC4xOTksMC4xNjEtMC4zNiwwLjM2LTAuMzZoMi43NmMwLjE5OSwwLDAuMzYsMC4xNjEsMC4zNiwwLjM2djEuNTY3bDAuODY4LDAuMzYzbDEuMTEtMS4xMTFjMC4xMzUtMC4xMzUsMC4zNzUtMC4xMzYsMC41MSwwCglsMS45NTIsMS45NTJjMC4wNjcsMC4wNjcsMC4xMDUsMC4xNTksMC4xMDUsMC4yNTRjMCwwLjA5Ni0wLjAzOCwwLjE4Ny0wLjEwNSwwLjI1NGwtMS4xMDksMS4xMDhsMC4zNTcsMC44NzJIMjMKCWMwLjE5OSwwLDAuMzYsMC4xNjEsMC4zNiwwLjM2djIuNzZjMCwwLjE5OS0wLjE2MSwwLjM2LTAuMzYsMC4zNmgtMS41NjdsLTAuMzYzLDAuODY4bDEuMTExLDEuMTEKCWMwLjA2NywwLjA2NywwLjEwNSwwLjE1OSwwLjEwNSwwLjI1NXMtMC4wMzgsMC4xODgtMC4xMDUsMC4yNTVsLTEuOTUyLDEuOTUyYy0wLjA2NywwLjA2Ny0wLjE1OSwwLjEwNS0wLjI1NSwwLjEwNWwwLDAKCWMtMC4wOTYsMC0wLjE4OC0wLjAzOC0wLjI1NS0wLjEwNWwtMS4xMDctMS4xMDlsLTAuODcxLDAuMzU3VjIzQzE3Ljc0LDIzLjE5OSwxNy41NzksMjMuMzYsMTcuMzgsMjMuMzZ6IE0xNC45OCwyMi42NGgyLjA0di0xLjQ1MgoJYzAtMC4xNDYsMC4wODktMC4yNzcsMC4yMjQtMC4zMzNsMS4zMTYtMC41NGMwLjEzNC0wLjA1NywwLjI4OC0wLjAyNCwwLjM5MiwwLjA3OGwxLjAyMiwxLjAyNGwxLjQ0My0xLjQ0M2wtMS4wMjgtMS4wMjYKCWMtMC4xMDMtMC4xMDQtMC4xMzQtMC4yNTktMC4wNzctMC4zOTRsMC41NS0xLjMxMmMwLjA1Ni0wLjEzNCwwLjE4Ny0wLjIyMiwwLjMzMi0wLjIyMmgxLjQ0NnYtMi4wNGgtMS40NTIKCWMtMC4xNDYsMC0wLjI3Ny0wLjA4OC0wLjMzMy0wLjIyM2wtMC41NC0xLjMxNmMtMC4wNTUtMC4xMzQtMC4wMjQtMC4yODksMC4wNzgtMC4zOTFsMS4wMjQtMS4wMjNsLTEuNDQzLTEuNDQzbC0xLjAyNiwxLjAyNwoJYy0wLjEwNCwwLjEwMy0wLjI1OSwwLjEzNS0wLjM5NCwwLjA3OGwtMS4zMTItMC41NDljLTAuMTM0LTAuMDU2LTAuMjIyLTAuMTg3LTAuMjIyLTAuMzMyVjkuMzZoLTIuMDR2MS40NTIKCWMwLDAuMTQ2LTAuMDg4LDAuMjc4LTAuMjIzLDAuMzMzbC0xLjMxNiwwLjU0Yy0wLjEzNSwwLjA1NC0wLjI4OCwwLjAyNC0wLjM5MS0wLjA3OWwtMS4wMjMtMS4wMjNsLTEuNDQyLDEuNDQzbDEuMDI3LDEuMDI4CgljMC4xMDMsMC4xMDMsMC4xMzQsMC4yNTksMC4wNzcsMC4zOTRMMTEuMTQsMTQuNzZjLTAuMDU2LDAuMTM0LTAuMTg3LDAuMjIxLTAuMzMyLDAuMjIxSDkuMzZ2Mi4wNGgxLjQ1MgoJYzAuMTQ2LDAsMC4yNzgsMC4wODksMC4zMzMsMC4yMjRsMC41NCwxLjMxNmMwLjA1NSwwLjEzNSwwLjAyNCwwLjI4OS0wLjA3OSwwLjM5MmwtMS4wMjIsMS4wMjJsMS40NDIsMS40NDNsMS4wMjgtMS4wMjgKCWMwLjEwNC0wLjEwNCwwLjI1OS0wLjEzMywwLjM5NC0wLjA3N2wxLjMxMiwwLjU1YzAuMTM0LDAuMDU2LDAuMjIxLDAuMTg3LDAuMjIxLDAuMzMyTDE0Ljk4LDIyLjY0TDE0Ljk4LDIyLjY0eiBNMTYsMTkuMzYKCWMtMS44NTMsMC0zLjM2LTEuNTA4LTMuMzYtMy4zNnMxLjUwNy0zLjM2LDMuMzYtMy4zNnMzLjM2LDEuNTA3LDMuMzYsMy4zNlMxNy44NTMsMTkuMzYsMTYsMTkuMzZ6IE0xNiwxMy4zNgoJYy0xLjQ1NiwwLTIuNjQsMS4xODUtMi42NCwyLjY0YzAsMS40NTYsMS4xODUsMi42NCwyLjY0LDIuNjRjMS40NTYsMCwyLjY0LTEuMTg0LDIuNjQtMi42NFMxNy40NTYsMTMuMzYsMTYsMTMuMzZ6IE0xNiwzMS4zNgoJYy00LjUyOSwwLTguNzE2LTEuOTMzLTExLjY0LTUuMzM4VjMwSDMuNjR2LTUuMzZIOXYwLjcyMUg0Ljc0M0M3LjUzNiwyOC43MjUsMTEuNTk4LDMwLjY0LDE2LDMwLjY0CgljOC4wNzIsMCwxNC42NC02LjU2NywxNC42NC0xNC42NGgwLjcyMUMzMS4zNiwyNC40NywyNC40NywzMS4zNiwxNiwzMS4zNnogTTEuMzYsMTZIMC42NEMwLjY0LDcuNTMsNy41MywwLjY0LDE2LDAuNjQKCWM0LjUyOSwwLDguNzE2LDEuOTMzLDExLjY0LDUuMzM3VjJoMC43MjF2NS4zNkgyM1Y2LjY0aDQuMjU3QzI0LjQ2NCwzLjI3NSwyMC40MDEsMS4zNiwxNiwxLjM2QzcuOTI3LDEuMzYsMS4zNiw3LjkyNywxLjM2LDE2eiIvPgo8cmVjdCBpZD0iX1RyYW5zcGFyZW50X1JlY3RhbmdsZSIgc3R5bGU9ImZpbGw6bm9uZTsiIHdpZHRoPSIzMiIgaGVpZ2h0PSIzMiIvPgo8L3N2Zz4K;fontFamily=IBM Plex Sans;fontSource=fonts%2FIBMPlexSans-Regular.woff;container=0;" parent="hiCZ41Te97qc9-zwpl-o-418" vertex="1">
          <mxGeometry x="7" y="5" width="25" height="25" as="geometry" />
        </mxCell>
        <mxCell id="hiCZ41Te97qc9-zwpl-o-415" value="" style="group" parent="hiCZ41Te97qc9-zwpl-o-383" vertex="1" connectable="0">
          <mxGeometry x="30" y="43" width="160" height="35" as="geometry" />
        </mxCell>
        <mxCell id="hiCZ41Te97qc9-zwpl-o-400" value="" style="rounded=0;whiteSpace=wrap;html=1;fontFamily=IBM Plex Sans;fontSource=fonts%2FIBMPlexSans-Regular.woff;fontSize=14;spacingBottom=-28;spacingTop=0;labelPosition=-100;verticalLabelPosition=top;align=center;verticalAlign=bottom;spacingLeft=9;spacing=0;expand=0;recursiveResize=0;spacingRight=0;container=0;collapsible=0;strokeColor=#1192E8;fillColor=none;" parent="hiCZ41Te97qc9-zwpl-o-415" vertex="1">
          <mxGeometry width="160" height="35" as="geometry">
            <mxRectangle width="670" as="alternateBounds" />
          </mxGeometry>
        </mxCell>
        <mxCell id="hiCZ41Te97qc9-zwpl-o-401" value="Management" style="text;html=1;strokeColor=none;fillColor=none;align=left;verticalAlign=middle;whiteSpace=wrap;rounded=0;fontFamily=IBM Plex Sans;fontSource=fonts%2FIBMPlexSans-Regular.woff;fontSize=14;container=0;" parent="hiCZ41Te97qc9-zwpl-o-415" vertex="1">
          <mxGeometry x="34" y="8" width="116" height="20" as="geometry" />
        </mxCell>
        <mxCell id="hiCZ41Te97qc9-zwpl-o-402" value="" style="shape=image;aspect=fixed;image=data:image/svg+xml,PHN2ZyBpZD0iaWNvbiIgeG1sbnM9Imh0dHA6Ly93d3cudzMub3JnLzIwMDAvc3ZnIiB3aWR0aD0iMzIiIGhlaWdodD0iMzIiIHZpZXdCb3g9IjAgMCAzMiAzMiI+CiAgPGRlZnM+CiAgICA8c3R5bGU+CiAgICAgIC5jbHMtMSB7CiAgICAgICAgZmlsbDogbm9uZTsKICAgICAgfQogICAgPC9zdHlsZT4KICA8L2RlZnM+CiAgPHBhdGggZD0iTTguOTE0MSwyNC41bDQuMjU3LTQuMjU2OC0xLjQxNC0xLjQxNDFMNy41LDIzLjA4NTlsLS43OTMtLjc5MjlhLjk5OTQuOTk5NCwwLDAsMC0xLjQxNCwwbC00LDRhLjk5OTQuOTk5NCwwLDAsMCwwLDEuNDE0bDMsM2EuOTk5NS45OTk1LDAsMCwwLDEuNDE0LDBsNC00YS45OTk0Ljk5OTQsMCwwLDAsMC0xLjQxNFpNNSwyOC41ODU5LDMuNDE0MSwyNyw2LDI0LjQxNDEsNy41ODU5LDI2WiIvPgogIDxwYXRoIGQ9Ik0yNCwzMGE2LjAwNjcsNi4wMDY3LDAsMCwxLTYtNiw1Ljg0LDUuODQsMCwwLDEsLjIxMDktMS41NDY5bC04LjY2NC04LjY2MzhBNS44NDgzLDUuODQ4MywwLDAsMSw4LDE0LDUuOTc1Nyw1Ljk3NTcsMCwwLDEsMi40MjI4LDUuODE2NGwuNTU3Ny0xLjQyMTlMNi4yOTMsNy43MDdhMS4wMjMzLDEuMDIzMywwLDAsMCwxLjQxMzUsMCwuOTk5Ljk5OSwwLDAsMCwwLTEuNDE0MUw0LjM5MzYsMi45NzlsMS40MjMzLS41NTcxQTUuOTc3Miw1Ljk3NzIsMCwwLDEsMTQsOGE1Ljg0LDUuODQsMCwwLDEtLjIxMDksMS41NDY5bDguNjY0LDguNjYzNUE1Ljg1NDgsNS44NTQ4LDAsMCwxLDI0LDE4YTUuOTc1NSw1Ljk3NTUsMCwwLDEsNS41NzcxLDguMTgzNkwyOS4wMiwyNy42MDU1LDI1LjcwNywyNC4yOTNhMS4wMjMzLDEuMDIzMywwLDAsMC0xLjQxMzUsMCwuOTk5Ljk5OSwwLDAsMC0uMDAwNSwxLjQxNDFMMjcuNjA1NSwyOS4wMmwtMS40MjE5LjU1NzlBNS45Niw1Ljk2LDAsMCwxLDI0LDMwWk0xMC4wNjI1LDExLjQ3NjMsMjAuNTIzNCwyMS45Mzc1bC0uMjM5Mi42MDk0QTMuOTc1NCwzLjk3NTQsMCwwLDAsMjMuNzUsMjcuOTkyMmwtLjg3MTEtLjg3MTFhMi45OTkyLDIuOTk5MiwwLDAsMSwwLTQuMjQyNCwzLjA3MjEsMy4wNzIxLDAsMCwxLDQuMjQyNy4wMDA1bC44NzA2Ljg3MDhhMy45NzU5LDMuOTc1OSwwLDAsMC01LjQ0NTgtMy40NjU4bC0uNjA5NC4yMzg1LTEwLjQ2LTEwLjQ2LjIzOTItLjYwOTRBMy45NzU1LDMuOTc1NSwwLDAsMCw4LjI1MDUsNC4wMDc4bC44NzA2Ljg3MTFhMi45OTkyLDIuOTk5MiwwLDAsMSwwLDQuMjQyNCwzLjA3MjEsMy4wNzIxLDAsMCwxLTQuMjQyNy0uMDAwNUw0LjAwNzgsOC4yNWEzLjk3NSwzLjk3NSwwLDAsMCw1LjQ0NTMsMy40NjU2WiIvPgogIDxwYXRoIGQ9Ik0yOS4xMjI2LDIuODVhMy4wNzE2LDMuMDcxNiwwLDAsMC00LjI0MjIsMEwxNy40LDEwLjMzbDEuNDE0MSwxLjQxNCw3LjQ4LTcuNDhhMS4wMjQ0LDEuMDI0NCwwLDAsMSwxLjQxNDEsMCwxLjAwMiwxLjAwMiwwLDAsMSwwLDEuNDE0NWwtNy40OCw3LjQ4LDEuNDE0LDEuNDE0MSw3LjQ4LTcuNDc5NUEzLjAwMzEsMy4wMDMxLDAsMCwwLDI5LjEyMjYsMi44NVoiLz4KICA8cmVjdCBpZD0iX1RyYW5zcGFyZW50X1JlY3RhbmdsZV8iIGRhdGEtbmFtZT0iJmx0O1RyYW5zcGFyZW50IFJlY3RhbmdsZSZndDsiIGNsYXNzPSJjbHMtMSIgd2lkdGg9IjMyIiBoZWlnaHQ9IjMyIi8+Cjwvc3ZnPgo=;fontFamily=IBM Plex Sans;fontSource=fonts%2FIBMPlexSans-Regular.woff;container=0;" parent="hiCZ41Te97qc9-zwpl-o-415" vertex="1">
          <mxGeometry x="7" y="5" width="22.882401315789473" height="22.882401315789473" as="geometry" />
        </mxCell>
        <mxCell id="hiCZ41Te97qc9-zwpl-o-333" value="" style="rounded=0;whiteSpace=wrap;html=1;fontFamily=IBM Plex Sans;fontSource=fonts%2FIBMPlexSans-Regular.woff;fontSize=14;spacingBottom=-28;spacingTop=0;labelPosition=-100;verticalLabelPosition=top;align=center;verticalAlign=bottom;spacingLeft=9;spacing=0;expand=0;recursiveResize=0;spacingRight=0;container=1;collapsible=0;strokeColor=#1192E8;fillColor=none;" parent="hiCZ41Te97qc9-zwpl-o-73" vertex="1">
          <mxGeometry x="39" y="37" width="130" height="373" as="geometry">
            <mxRectangle width="670" as="alternateBounds" />
          </mxGeometry>
        </mxCell>
        <mxCell id="hiCZ41Te97qc9-zwpl-o-334" value="" style="rounded=0;whiteSpace=wrap;html=1;strokeColor=none;fillColor=#1192E8;fontFamily=IBM Plex Sans;fontSource=fonts%2FIBMPlexSans-Regular.woff;" parent="hiCZ41Te97qc9-zwpl-o-333" vertex="1">
          <mxGeometry width="7" height="37" as="geometry" />
        </mxCell>
        <mxCell id="hiCZ41Te97qc9-zwpl-o-335" value="Front end" style="text;html=1;strokeColor=none;fillColor=none;align=left;verticalAlign=middle;whiteSpace=wrap;rounded=0;fontFamily=IBM Plex Sans;fontSource=fonts%2FIBMPlexSans-Regular.woff;fontSize=14;" parent="hiCZ41Te97qc9-zwpl-o-333" vertex="1">
          <mxGeometry x="51" y="8" width="69" height="20" as="geometry" />
        </mxCell>
        <mxCell id="hiCZ41Te97qc9-zwpl-o-336" value="" style="shape=image;aspect=fixed;image=data:image/svg+xml,PHN2ZyB3aWR0aD0iMzIiIGhlaWdodD0iMzIiIHZpZXdCb3g9IjAgMCAzMiAzMiIgZmlsbD0ibm9uZSIgeG1sbnM9Imh0dHA6Ly93d3cudzMub3JnLzIwMDAvc3ZnIj4KPGcgY2xpcC1wYXRoPSJ1cmwoI2NsaXAwXzNfMjYzKSI+CjxtYXNrIGlkPSJtYXNrMF8zXzI2MyIgc3R5bGU9Im1hc2stdHlwZTphbHBoYSIgbWFza1VuaXRzPSJ1c2VyU3BhY2VPblVzZSIgeD0iMiIgeT0iNCIgd2lkdGg9IjI4IiBoZWlnaHQ9IjI2Ij4KPHBhdGggZD0iTTI4IDE2VjIySDRWNkg3VjRINEMzLjQ2OTU3IDQgMi45NjA4NiA0LjIxMDcxIDIuNTg1NzkgNC41ODU3OUMyLjIxMDcxIDQuOTYwODYgMiA1LjQ2OTU3IDIgNlYyMkMyIDIyLjUzMDQgMi4yMTA3MSAyMy4wMzkxIDIuNTg1NzkgMjMuNDE0MkMyLjk2MDg2IDIzLjc4OTMgMy40Njk1NyAyNCA0IDI0SDEyVjI4SDhWMzBIMjRWMjhIMjBWMjRIMjhDMjguNTMwNCAyNCAyOS4wMzkxIDIzLjc4OTMgMjkuNDE0MiAyMy40MTQyQzI5Ljc4OTMgMjMuMDM5MSAzMCAyMi41MzA0IDMwIDIyVjE2SDI4Wk0xOCAyOEgxNFYyNEgxOFYyOFoiIGZpbGw9IndoaXRlIi8+CjxwYXRoIGZpbGwtcnVsZT0iZXZlbm9kZCIgY2xpcC1ydWxlPSJldmVub2RkIiBkPSJNNiA1VjRMMTcgNFY2TDYgNkw2IDVaIiBmaWxsPSJ1cmwoI3BhaW50MF9saW5lYXJfM18yNjMpIi8+CjwvbWFzaz4KPGcgbWFzaz0idXJsKCNtYXNrMF8zXzI2MykiPgo8cmVjdCB3aWR0aD0iMzIiIGhlaWdodD0iMzIiIGZpbGw9IndoaXRlIi8+CjxwYXRoIGQ9Ik0zMiAwSDBWMzJIMzJWMFoiIGZpbGw9InVybCgjcGFpbnQxX2xpbmVhcl8zXzI2MykiLz4KPC9nPgo8cGF0aCBmaWxsLXJ1bGU9ImV2ZW5vZGQiIGNsaXAtcnVsZT0iZXZlbm9kZCIgZD0iTTI0IDJIMTZWNEgyNFYyWk0yNCA2SDE2VjhIMjRWNlpNMjUuNzIgMTEuMThDMjUuMTg5OCAxMC45MjAyIDI0Ljc0OCAxMC41MDk3IDI0LjQ1IDEwSDIyLjI2QzIyLjQ2NTYgMTAuNjUxMSAyMi44MDIzIDExLjI1MzEgMjMuMjQ5NSAxMS43NjkxQzIzLjY5NjcgMTIuMjg1MSAyNC4yNDQ4IDEyLjcwNCAyNC44NiAxM0wyNyAxNEwyOS4xNCAxM0MyOS45OTczIDEyLjU5NCAzMC43MjE1IDExLjk1MjUgMzEuMjI3OSAxMS4xNTA0QzMxLjczNDMgMTAuMzQ4MiAzMi4wMDIxIDkuNDE4NjEgMzIgOC40N1YySDI3VjRIMzBWOC40N0MyOS45OTk0IDkuMDM4MjQgMjkuODM3NCA5LjU5NDYxIDI5LjUzMjkgMTAuMDc0NEMyOS4yMjg0IDEwLjU1NDEgMjguNzkzOSAxMC45Mzc2IDI4LjI4IDExLjE4TDI3IDExLjc5TDI1LjcyIDExLjE4WiIgZmlsbD0iIzAwMUQ2QyIvPgo8L2c+CjxkZWZzPgo8bGluZWFyR3JhZGllbnQgaWQ9InBhaW50MF9saW5lYXJfM18yNjMiIHgxPSI2Ljc4NTcxIiB5MT0iNSIgeDI9IjE3IiB5Mj0iNSIgZ3JhZGllbnRVbml0cz0idXNlclNwYWNlT25Vc2UiPgo8c3RvcCBvZmZzZXQ9IjAuMDQ2ODc1IiBzdG9wLWNvbG9yPSJ3aGl0ZSIvPgo8c3RvcCBvZmZzZXQ9IjAuODIyOTE3IiBzdG9wLWNvbG9yPSJ3aGl0ZSIgc3RvcC1vcGFjaXR5PSIwIi8+CjwvbGluZWFyR3JhZGllbnQ+CjxsaW5lYXJHcmFkaWVudCBpZD0icGFpbnQxX2xpbmVhcl8zXzI2MyIgeDE9IjAiIHkxPSIzMiIgeDI9IjMyIiB5Mj0iMCIgZ3JhZGllbnRVbml0cz0idXNlclNwYWNlT25Vc2UiPgo8c3RvcCBvZmZzZXQ9IjAuMSIgc3RvcC1jb2xvcj0iI0ZBNEQ1NiIvPgo8c3RvcCBvZmZzZXQ9IjAuOSIgc3RvcC1jb2xvcj0iIzlGMTg1MyIvPgo8L2xpbmVhckdyYWRpZW50Pgo8Y2xpcFBhdGggaWQ9ImNsaXAwXzNfMjYzIj4KPHJlY3Qgd2lkdGg9IjMyIiBoZWlnaHQ9IjMyIiBmaWxsPSJ3aGl0ZSIvPgo8L2NsaXBQYXRoPgo8L2RlZnM+Cjwvc3ZnPgo=;fontFamily=IBM Plex Sans;fontSource=fonts%2FIBMPlexSans-Regular.woff;" parent="hiCZ41Te97qc9-zwpl-o-333" vertex="1">
          <mxGeometry x="14" y="6" width="25" height="25" as="geometry" />
        </mxCell>
        <mxCell id="hiCZ41Te97qc9-zwpl-o-341" value="" style="group;fontFamily=IBM Plex Sans;fontSource=fonts%2FIBMPlexSans-Regular.woff;" parent="hiCZ41Te97qc9-zwpl-o-333" vertex="1" connectable="0">
          <mxGeometry x="15" y="253" width="100" height="35" as="geometry" />
        </mxCell>
        <mxCell id="hiCZ41Te97qc9-zwpl-o-342" value="" style="rounded=0;whiteSpace=wrap;html=1;fontFamily=IBM Plex Sans;fontSource=fonts%2FIBMPlexSans-Regular.woff;fontSize=14;spacingBottom=-28;spacingTop=0;labelPosition=-100;verticalLabelPosition=top;align=center;verticalAlign=bottom;spacingLeft=9;spacing=0;expand=0;recursiveResize=0;spacingRight=0;container=0;collapsible=0;strokeColor=#1192E8;fillColor=none;" parent="hiCZ41Te97qc9-zwpl-o-341" vertex="1">
          <mxGeometry width="100" height="35" as="geometry">
            <mxRectangle width="670" as="alternateBounds" />
          </mxGeometry>
        </mxCell>
        <mxCell id="hiCZ41Te97qc9-zwpl-o-343" value="Web UI" style="text;html=1;strokeColor=none;fillColor=none;align=left;verticalAlign=middle;whiteSpace=wrap;rounded=0;fontFamily=IBM Plex Sans;fontSource=fonts%2FIBMPlexSans-Regular.woff;fontSize=14;container=0;" parent="hiCZ41Te97qc9-zwpl-o-341" vertex="1">
          <mxGeometry x="34" y="8" width="66" height="20" as="geometry" />
        </mxCell>
        <mxCell id="hiCZ41Te97qc9-zwpl-o-344" value="" style="shape=image;aspect=fixed;image=data:image/svg+xml,PHN2ZyBpZD0iaWNvbiIgeG1sbnM9Imh0dHA6Ly93d3cudzMub3JnLzIwMDAvc3ZnIiB3aWR0aD0iMzIiIGhlaWdodD0iMzIiIHZpZXdCb3g9IjAgMCAzMiAzMiI+PGRlZnM+PHN0eWxlPi5jbHMtMXtmaWxsOm5vbmU7fTwvc3R5bGU+PC9kZWZzPjx0aXRsZT5kYXNoYm9hcmQ8L3RpdGxlPjxyZWN0IHg9IjI0IiB5PSIyMSIgd2lkdGg9IjIiIGhlaWdodD0iNSIvPjxyZWN0IHg9IjIwIiB5PSIxNiIgd2lkdGg9IjIiIGhlaWdodD0iMTAiLz48cGF0aCBkPSJNMTEsMjZhNS4wMDU5LDUuMDA1OSwwLDAsMS01LTVIOGEzLDMsMCwxLDAsMy0zVjE2YTUsNSwwLDAsMSwwLDEwWiIvPjxwYXRoIGQ9Ik0yOCwySDRBMi4wMDIsMi4wMDIsMCwwLDAsMiw0VjI4YTIuMDAyMywyLjAwMjMsMCwwLDAsMiwySDI4YTIuMDAyNywyLjAwMjcsMCwwLDAsMi0yVjRBMi4wMDIzLDIuMDAyMywwLDAsMCwyOCwyWm0wLDlIMTRWNEgyOFpNMTIsNHY3SDRWNFpNNCwyOFYxM0gyOC4wMDA3bC4wMDEzLDE1WiIvPjxyZWN0IGlkPSJfVHJhbnNwYXJlbnRfUmVjdGFuZ2xlXyIgZGF0YS1uYW1lPSImbHQ7VHJhbnNwYXJlbnQgUmVjdGFuZ2xlJmd0OyIgY2xhc3M9ImNscy0xIiB3aWR0aD0iMzIiIGhlaWdodD0iMzIiLz48L3N2Zz4=;container=0;fontFamily=IBM Plex Sans;fontSource=fonts%2FIBMPlexSans-Regular.woff;" parent="hiCZ41Te97qc9-zwpl-o-341" vertex="1">
          <mxGeometry x="6" y="5" width="25" height="25" as="geometry" />
        </mxCell>
        <mxCell id="hiCZ41Te97qc9-zwpl-o-337" value="" style="group;fontFamily=IBM Plex Sans;fontSource=fonts%2FIBMPlexSans-Regular.woff;" parent="hiCZ41Te97qc9-zwpl-o-333" vertex="1" connectable="0">
          <mxGeometry x="15" y="43" width="100" height="35" as="geometry" />
        </mxCell>
        <mxCell id="hiCZ41Te97qc9-zwpl-o-338" value="" style="rounded=0;whiteSpace=wrap;html=1;fontFamily=IBM Plex Sans;fontSource=fonts%2FIBMPlexSans-Regular.woff;fontSize=14;spacingBottom=-28;spacingTop=0;labelPosition=-100;verticalLabelPosition=top;align=center;verticalAlign=bottom;spacingLeft=9;spacing=0;expand=0;recursiveResize=0;spacingRight=0;container=0;collapsible=0;strokeColor=#1192E8;fillColor=none;" parent="hiCZ41Te97qc9-zwpl-o-337" vertex="1">
          <mxGeometry width="100" height="35" as="geometry">
            <mxRectangle width="670" as="alternateBounds" />
          </mxGeometry>
        </mxCell>
        <mxCell id="hiCZ41Te97qc9-zwpl-o-339" value="Ingestion" style="text;html=1;strokeColor=none;fillColor=none;align=left;verticalAlign=middle;whiteSpace=wrap;rounded=0;fontFamily=IBM Plex Sans;fontSource=fonts%2FIBMPlexSans-Regular.woff;fontSize=14;" parent="hiCZ41Te97qc9-zwpl-o-337" vertex="1">
          <mxGeometry x="34" y="8" width="66" height="20" as="geometry" />
        </mxCell>
        <mxCell id="hiCZ41Te97qc9-zwpl-o-340" value="" style="shape=image;aspect=fixed;image=data:image/svg+xml,PHN2ZyBpZD0iaWNvbiIgeG1sbnM9Imh0dHA6Ly93d3cudzMub3JnLzIwMDAvc3ZnIiB2aWV3Qm94PSIwIDAgMzIgMzIiPjxkZWZzPjxzdHlsZT4uY2xzLTF7ZmlsbDpub25lO308L3N0eWxlPjwvZGVmcz48dGl0bGU+ZGF0YS0yPC90aXRsZT48cmVjdCB4PSI0IiB5PSI2IiB3aWR0aD0iMTEiIGhlaWdodD0iMiIvPjxyZWN0IHg9IjE4IiB5PSI2IiB3aWR0aD0iMTAiIGhlaWdodD0iMiIvPjxyZWN0IHg9IjIxIiB5PSIxMiIgd2lkdGg9IjciIGhlaWdodD0iMiIvPjxyZWN0IHg9IjExIiB5PSIxMiIgd2lkdGg9IjciIGhlaWdodD0iMiIvPjxyZWN0IHg9IjQiIHk9IjEyIiB3aWR0aD0iNCIgaGVpZ2h0PSIyIi8+PHJlY3QgeD0iNCIgeT0iMTgiIHdpZHRoPSIyNCIgaGVpZ2h0PSIyIi8+PHJlY3QgeD0iNCIgeT0iMjQiIHdpZHRoPSIxNyIgaGVpZ2h0PSIyIi8+PHJlY3QgaWQ9Il9QYXRoXyIgZGF0YS1uYW1lPSImbHQ7UGF0aCZndDsiIHg9IjI0IiB5PSIyNCIgd2lkdGg9IjQiIGhlaWdodD0iMiIvPjxyZWN0IGlkPSJfVHJhbnNwYXJlbnRfUmVjdGFuZ2xlXyIgZGF0YS1uYW1lPSImbHQ7VHJhbnNwYXJlbnQgUmVjdGFuZ2xlJmd0OyIgY2xhc3M9ImNscy0xIiB3aWR0aD0iMzIiIGhlaWdodD0iMzIiLz48L3N2Zz4=;fontFamily=IBM Plex Sans;fontSource=fonts%2FIBMPlexSans-Regular.woff;" parent="hiCZ41Te97qc9-zwpl-o-337" vertex="1">
          <mxGeometry x="7" y="5" width="25" height="25" as="geometry" />
        </mxCell>
        <mxCell id="hiCZ41Te97qc9-zwpl-o-379" value="" style="group;fontFamily=IBM Plex Sans;fontSource=fonts%2FIBMPlexSans-Regular.woff;" parent="hiCZ41Te97qc9-zwpl-o-333" vertex="1" connectable="0">
          <mxGeometry x="15" y="323" width="100" height="35" as="geometry" />
        </mxCell>
        <mxCell id="hiCZ41Te97qc9-zwpl-o-380" value="" style="rounded=0;whiteSpace=wrap;html=1;fontFamily=IBM Plex Sans;fontSource=fonts%2FIBMPlexSans-Regular.woff;fontSize=14;spacingBottom=-28;spacingTop=0;labelPosition=-100;verticalLabelPosition=top;align=center;verticalAlign=bottom;spacingLeft=9;spacing=0;expand=0;recursiveResize=0;spacingRight=0;container=0;collapsible=0;strokeColor=#1192E8;fillColor=none;" parent="hiCZ41Te97qc9-zwpl-o-379" vertex="1">
          <mxGeometry width="100" height="35" as="geometry">
            <mxRectangle width="670" as="alternateBounds" />
          </mxGeometry>
        </mxCell>
        <mxCell id="hiCZ41Te97qc9-zwpl-o-381" value="API" style="text;html=1;strokeColor=none;fillColor=none;align=left;verticalAlign=middle;whiteSpace=wrap;rounded=0;fontFamily=IBM Plex Sans;fontSource=fonts%2FIBMPlexSans-Regular.woff;fontSize=14;" parent="hiCZ41Te97qc9-zwpl-o-379" vertex="1">
          <mxGeometry x="34" y="8" width="66" height="20" as="geometry" />
        </mxCell>
        <mxCell id="hiCZ41Te97qc9-zwpl-o-382" value="" style="shape=image;aspect=fixed;image=data:image/svg+xml,PHN2ZyBpZD0iaWNvbiIgeG1sbnM9Imh0dHA6Ly93d3cudzMub3JnLzIwMDAvc3ZnIiB2aWV3Qm94PSIwIDAgMzIgMzIiPjxkZWZzPjxzdHlsZT4uY2xzLTF7ZmlsbDpub25lO308L3N0eWxlPjwvZGVmcz48dGl0bGU+YXBpPC90aXRsZT48cGF0aCBkPSJNMjYsMjJhMy44NiwzLjg2LDAsMCwwLTIsLjU3bC0zLjA5LTMuMWE2LDYsMCwwLDAsMC02Ljk0TDI0LDkuNDNBMy44NiwzLjg2LDAsMCwwLDI2LDEwYTQsNCwwLDEsMC00LTQsMy44NiwzLjg2LDAsMCwwLC41NywybC0zLjEsMy4wOWE2LDYsMCwwLDAtNi45NCwwTDkuNDMsOEEzLjg2LDMuODYsMCwwLDAsMTAsNmE0LDQsMCwxLDAtNCw0LDMuODYsMy44NiwwLDAsMCwyLS41N2wzLjA5LDMuMWE2LDYsMCwwLDAsMCw2Ljk0TDgsMjIuNTdBMy44NiwzLjg2LDAsMCwwLDYsMjJhNCw0LDAsMSwwLDQsNCwzLjg2LDMuODYsMCwwLDAtLjU3LTJsMy4xLTMuMDlhNiw2LDAsMCwwLDYuOTQsMEwyMi41NywyNEEzLjg2LDMuODYsMCwwLDAsMjIsMjZhNCw0LDAsMSwwLDQtNFpNMjYsNGEyLDIsMCwxLDEtMiwyQTIsMiwwLDAsMSwyNiw0Wk00LDZBMiwyLDAsMSwxLDYsOCwyLDIsMCwwLDEsNCw2Wk02LDI4YTIsMiwwLDEsMSwyLTJBMiwyLDAsMCwxLDYsMjhabTEwLThhNCw0LDAsMSwxLDQtNEE0LDQsMCwwLDEsMTYsMjBabTEwLDhhMiwyLDAsMSwxLDItMkEyLDIsMCwwLDEsMjYsMjhaIiB0cmFuc2Zvcm09InRyYW5zbGF0ZSgwIDApIi8+PHJlY3QgY2xhc3M9ImNscy0xIiB3aWR0aD0iMzIiIGhlaWdodD0iMzIiLz48L3N2Zz4=;fontFamily=IBM Plex Sans;fontSource=fonts%2FIBMPlexSans-Regular.woff;" parent="hiCZ41Te97qc9-zwpl-o-379" vertex="1">
          <mxGeometry x="7" y="5" width="25" height="25" as="geometry" />
        </mxCell>
        <mxCell id="hiCZ41Te97qc9-zwpl-o-419" value="" style="rounded=0;whiteSpace=wrap;html=1;fontFamily=IBM Plex Sans;fontSource=fonts%2FIBMPlexSans-Regular.woff;fontSize=14;spacingBottom=-28;spacingTop=0;labelPosition=-100;verticalLabelPosition=top;align=center;verticalAlign=bottom;spacingLeft=9;spacing=0;expand=0;recursiveResize=0;spacingRight=0;container=1;collapsible=0;strokeColor=#1192E8;fillColor=none;" parent="hiCZ41Te97qc9-zwpl-o-73" vertex="1">
          <mxGeometry x="470" y="37" width="160" height="243" as="geometry">
            <mxRectangle width="670" as="alternateBounds" />
          </mxGeometry>
        </mxCell>
        <mxCell id="hiCZ41Te97qc9-zwpl-o-420" value="" style="rounded=0;whiteSpace=wrap;html=1;strokeColor=none;fillColor=#1192E8;fontFamily=IBM Plex Sans;fontSource=fonts%2FIBMPlexSans-Regular.woff;" parent="hiCZ41Te97qc9-zwpl-o-419" vertex="1">
          <mxGeometry width="7" height="37" as="geometry" />
        </mxCell>
        <mxCell id="hiCZ41Te97qc9-zwpl-o-421" value="Storage" style="text;html=1;strokeColor=none;fillColor=none;align=left;verticalAlign=middle;whiteSpace=wrap;rounded=0;fontFamily=IBM Plex Sans;fontSource=fonts%2FIBMPlexSans-Regular.woff;fontSize=14;" parent="hiCZ41Te97qc9-zwpl-o-419" vertex="1">
          <mxGeometry x="51" y="8" width="69" height="20" as="geometry" />
        </mxCell>
        <mxCell id="hiCZ41Te97qc9-zwpl-o-422" value="" style="shape=image;aspect=fixed;image=data:image/svg+xml,PHN2ZyB3aWR0aD0iMzIiIGhlaWdodD0iMzIiIHZpZXdCb3g9IjAgMCAzMiAzMiIgZmlsbD0ibm9uZSIgeG1sbnM9Imh0dHA6Ly93d3cudzMub3JnLzIwMDAvc3ZnIj4KPGcgY2xpcC1wYXRoPSJ1cmwoI2NsaXAwXzNfMjYzKSI+CjxtYXNrIGlkPSJtYXNrMF8zXzI2MyIgc3R5bGU9Im1hc2stdHlwZTphbHBoYSIgbWFza1VuaXRzPSJ1c2VyU3BhY2VPblVzZSIgeD0iMiIgeT0iNCIgd2lkdGg9IjI4IiBoZWlnaHQ9IjI2Ij4KPHBhdGggZD0iTTI4IDE2VjIySDRWNkg3VjRINEMzLjQ2OTU3IDQgMi45NjA4NiA0LjIxMDcxIDIuNTg1NzkgNC41ODU3OUMyLjIxMDcxIDQuOTYwODYgMiA1LjQ2OTU3IDIgNlYyMkMyIDIyLjUzMDQgMi4yMTA3MSAyMy4wMzkxIDIuNTg1NzkgMjMuNDE0MkMyLjk2MDg2IDIzLjc4OTMgMy40Njk1NyAyNCA0IDI0SDEyVjI4SDhWMzBIMjRWMjhIMjBWMjRIMjhDMjguNTMwNCAyNCAyOS4wMzkxIDIzLjc4OTMgMjkuNDE0MiAyMy40MTQyQzI5Ljc4OTMgMjMuMDM5MSAzMCAyMi41MzA0IDMwIDIyVjE2SDI4Wk0xOCAyOEgxNFYyNEgxOFYyOFoiIGZpbGw9IndoaXRlIi8+CjxwYXRoIGZpbGwtcnVsZT0iZXZlbm9kZCIgY2xpcC1ydWxlPSJldmVub2RkIiBkPSJNNiA1VjRMMTcgNFY2TDYgNkw2IDVaIiBmaWxsPSJ1cmwoI3BhaW50MF9saW5lYXJfM18yNjMpIi8+CjwvbWFzaz4KPGcgbWFzaz0idXJsKCNtYXNrMF8zXzI2MykiPgo8cmVjdCB3aWR0aD0iMzIiIGhlaWdodD0iMzIiIGZpbGw9IndoaXRlIi8+CjxwYXRoIGQ9Ik0zMiAwSDBWMzJIMzJWMFoiIGZpbGw9InVybCgjcGFpbnQxX2xpbmVhcl8zXzI2MykiLz4KPC9nPgo8cGF0aCBmaWxsLXJ1bGU9ImV2ZW5vZGQiIGNsaXAtcnVsZT0iZXZlbm9kZCIgZD0iTTI0IDJIMTZWNEgyNFYyWk0yNCA2SDE2VjhIMjRWNlpNMjUuNzIgMTEuMThDMjUuMTg5OCAxMC45MjAyIDI0Ljc0OCAxMC41MDk3IDI0LjQ1IDEwSDIyLjI2QzIyLjQ2NTYgMTAuNjUxMSAyMi44MDIzIDExLjI1MzEgMjMuMjQ5NSAxMS43NjkxQzIzLjY5NjcgMTIuMjg1MSAyNC4yNDQ4IDEyLjcwNCAyNC44NiAxM0wyNyAxNEwyOS4xNCAxM0MyOS45OTczIDEyLjU5NCAzMC43MjE1IDExLjk1MjUgMzEuMjI3OSAxMS4xNTA0QzMxLjczNDMgMTAuMzQ4MiAzMi4wMDIxIDkuNDE4NjEgMzIgOC40N1YySDI3VjRIMzBWOC40N0MyOS45OTk0IDkuMDM4MjQgMjkuODM3NCA5LjU5NDYxIDI5LjUzMjkgMTAuMDc0NEMyOS4yMjg0IDEwLjU1NDEgMjguNzkzOSAxMC45Mzc2IDI4LjI4IDExLjE4TDI3IDExLjc5TDI1LjcyIDExLjE4WiIgZmlsbD0iIzAwMUQ2QyIvPgo8L2c+CjxkZWZzPgo8bGluZWFyR3JhZGllbnQgaWQ9InBhaW50MF9saW5lYXJfM18yNjMiIHgxPSI2Ljc4NTcxIiB5MT0iNSIgeDI9IjE3IiB5Mj0iNSIgZ3JhZGllbnRVbml0cz0idXNlclNwYWNlT25Vc2UiPgo8c3RvcCBvZmZzZXQ9IjAuMDQ2ODc1IiBzdG9wLWNvbG9yPSJ3aGl0ZSIvPgo8c3RvcCBvZmZzZXQ9IjAuODIyOTE3IiBzdG9wLWNvbG9yPSJ3aGl0ZSIgc3RvcC1vcGFjaXR5PSIwIi8+CjwvbGluZWFyR3JhZGllbnQ+CjxsaW5lYXJHcmFkaWVudCBpZD0icGFpbnQxX2xpbmVhcl8zXzI2MyIgeDE9IjAiIHkxPSIzMiIgeDI9IjMyIiB5Mj0iMCIgZ3JhZGllbnRVbml0cz0idXNlclNwYWNlT25Vc2UiPgo8c3RvcCBvZmZzZXQ9IjAuMSIgc3RvcC1jb2xvcj0iI0ZBNEQ1NiIvPgo8c3RvcCBvZmZzZXQ9IjAuOSIgc3RvcC1jb2xvcj0iIzlGMTg1MyIvPgo8L2xpbmVhckdyYWRpZW50Pgo8Y2xpcFBhdGggaWQ9ImNsaXAwXzNfMjYzIj4KPHJlY3Qgd2lkdGg9IjMyIiBoZWlnaHQ9IjMyIiBmaWxsPSJ3aGl0ZSIvPgo8L2NsaXBQYXRoPgo8L2RlZnM+Cjwvc3ZnPgo=;fontFamily=IBM Plex Sans;fontSource=fonts%2FIBMPlexSans-Regular.woff;" parent="hiCZ41Te97qc9-zwpl-o-419" vertex="1">
          <mxGeometry x="14" y="6" width="25" height="25" as="geometry" />
        </mxCell>
        <mxCell id="hiCZ41Te97qc9-zwpl-o-192" value="" style="group;fontFamily=IBM Plex Sans;fontSource=fonts%2FIBMPlexSans-Regular.woff;" parent="hiCZ41Te97qc9-zwpl-o-419" vertex="1" connectable="0">
          <mxGeometry x="14" y="43" width="130" height="35" as="geometry" />
        </mxCell>
        <mxCell id="hiCZ41Te97qc9-zwpl-o-177" value="" style="rounded=0;whiteSpace=wrap;html=1;fontFamily=IBM Plex Sans;fontSource=fonts%2FIBMPlexSans-Regular.woff;fontSize=14;spacingBottom=-28;spacingTop=0;labelPosition=-100;verticalLabelPosition=top;align=center;verticalAlign=bottom;spacingLeft=9;spacing=0;expand=0;recursiveResize=0;spacingRight=0;container=0;collapsible=0;strokeColor=#1192E8;fillColor=none;" parent="hiCZ41Te97qc9-zwpl-o-192" vertex="1">
          <mxGeometry width="130" height="35" as="geometry">
            <mxRectangle width="670" as="alternateBounds" />
          </mxGeometry>
        </mxCell>
        <mxCell id="hiCZ41Te97qc9-zwpl-o-178" value="Configuration" style="text;html=1;strokeColor=none;fillColor=none;align=left;verticalAlign=middle;whiteSpace=wrap;rounded=0;fontFamily=IBM Plex Sans;fontSource=fonts%2FIBMPlexSans-Regular.woff;fontSize=14;container=0;" parent="hiCZ41Te97qc9-zwpl-o-192" vertex="1">
          <mxGeometry x="34" y="8" width="76" height="20" as="geometry" />
        </mxCell>
        <mxCell id="hiCZ41Te97qc9-zwpl-o-179" value="" style="shape=image;aspect=fixed;image=data:image/svg+xml,PD94bWwgdmVyc2lvbj0iMS4wIiBlbmNvZGluZz0iVVRGLTgiPz4KPHN2ZyBpZD0iaWNvbiIgeG1sbnM9Imh0dHA6Ly93d3cudzMub3JnLzIwMDAvc3ZnIiB3aWR0aD0iMzIiIGhlaWdodD0iMzIiIHZpZXdCb3g9IjAgMCAzMiAzMiI+CiAgPGRlZnM+CiAgICA8c3R5bGU+CiAgICAgIC5jbHMtMSB7CiAgICAgICAgZmlsbDogbm9uZTsKICAgICAgfQogICAgPC9zdHlsZT4KICA8L2RlZnM+CiAgPHBhdGggZD0iTTE2LDNjLTUuMjk3OSwwLTExLDEuMjUyLTExLDRWMjVjMCwyLjc0OCw1LjcwMjEsNCwxMSw0czExLTEuMjUyLDExLTRWN2MwLTIuNzQ4LTUuNzAyMS00LTExLTRabTAsMmM1Ljc5NzYsMCw4Ljc5NDksMS40MzQxLDguOTk2OCwyLS4yMDE5LC41NjU5LTMuMTk5MiwyLTguOTk2OCwyLTUuODQxMywwLTguODM5NC0xLjQ1NTYtOS0xLjk4MjR2LS4wMDQ5Yy4xNjA2LS41NTcxLDMuMTU4Ny0yLjAxMjcsOS0yLjAxMjdaTTcsOS40Mjc3YzIuMTI3OSwxLjA2NzQsNS42NDI2LDEuNTcyMyw5LDEuNTcyM3M2Ljg3MjEtLjUwNDksOS0xLjU3MjN2My41NTk2Yy0uMTYwNiwuNTU3MS0zLjE1ODcsMi4wMTI3LTksMi4wMTI3LTUuODUwMSwwLTguODQ5MS0xLjQ2LTktMnYtMy41NzIzWm0wLDZjMi4xMjc5LDEuMDY3NCw1LjY0MjYsMS41NzIzLDksMS41NzIzczYuODcyMS0uNTA0OSw5LTEuNTcyM3YzLjU1OTZjLS4xNjA2LC41NTcxLTMuMTU4NywyLjAxMjctOSwyLjAxMjctNS44NTAxLDAtOC44NDkxLTEuNDYtOS0ydi0zLjU3MjNabTksMTEuNTcyM2MtNS44NTAxLDAtOC44NDkxLTEuNDYtOS0ydi0zLjU3MjNjMi4xMjc5LDEuMDY3NCw1LjY0MjYsMS41NzIzLDksMS41NzIzczYuODcyMS0uNTA0OSw5LTEuNTcyM3YzLjU1OTZjLS4xNjA2LC41NTcxLTMuMTU4NywyLjAxMjctOSwyLjAxMjdaIi8+CiAgPHJlY3QgaWQ9Il9UcmFuc3BhcmVudF9SZWN0YW5nbGVfIiBkYXRhLW5hbWU9IiZhbXA7bHQ7VHJhbnNwYXJlbnQgUmVjdGFuZ2xlJmFtcDtndDsiIGNsYXNzPSJjbHMtMSIgd2lkdGg9IjMyIiBoZWlnaHQ9IjMyIi8+Cjwvc3ZnPg==;fontFamily=IBM Plex Sans;fontSource=fonts%2FIBMPlexSans-Regular.woff;container=0;" parent="hiCZ41Te97qc9-zwpl-o-192" vertex="1">
          <mxGeometry x="5" y="5" width="25" height="25" as="geometry" />
        </mxCell>
        <mxCell id="hiCZ41Te97qc9-zwpl-o-194" value="" style="group;fontFamily=IBM Plex Sans;fontSource=fonts%2FIBMPlexSans-Regular.woff;" parent="hiCZ41Te97qc9-zwpl-o-419" vertex="1" connectable="0">
          <mxGeometry x="15" y="93" width="130" height="35" as="geometry" />
        </mxCell>
        <mxCell id="hiCZ41Te97qc9-zwpl-o-186" value="" style="rounded=0;whiteSpace=wrap;html=1;fontFamily=IBM Plex Sans;fontSource=fonts%2FIBMPlexSans-Regular.woff;fontSize=14;spacingBottom=-28;spacingTop=0;labelPosition=-100;verticalLabelPosition=top;align=center;verticalAlign=bottom;spacingLeft=9;spacing=0;expand=0;recursiveResize=0;spacingRight=0;container=0;collapsible=0;strokeColor=#1192E8;fillColor=none;" parent="hiCZ41Te97qc9-zwpl-o-194" vertex="1">
          <mxGeometry width="130" height="35" as="geometry">
            <mxRectangle width="670" as="alternateBounds" />
          </mxGeometry>
        </mxCell>
        <mxCell id="hiCZ41Te97qc9-zwpl-o-187" value="Priority logs" style="text;html=1;strokeColor=none;fillColor=none;align=left;verticalAlign=middle;whiteSpace=wrap;rounded=0;fontFamily=IBM Plex Sans;fontSource=fonts%2FIBMPlexSans-Regular.woff;fontSize=14;container=0;" parent="hiCZ41Te97qc9-zwpl-o-194" vertex="1">
          <mxGeometry x="34" y="8" width="86" height="20" as="geometry" />
        </mxCell>
        <mxCell id="hiCZ41Te97qc9-zwpl-o-188" value="" style="shape=image;aspect=fixed;image=data:image/svg+xml,PD94bWwgdmVyc2lvbj0iMS4wIiBlbmNvZGluZz0iVVRGLTgiPz4KPHN2ZyBpZD0iaWNvbiIgeG1sbnM9Imh0dHA6Ly93d3cudzMub3JnLzIwMDAvc3ZnIiB3aWR0aD0iMzIiIGhlaWdodD0iMzIiIHZpZXdCb3g9IjAgMCAzMiAzMiI+CiAgPGRlZnM+CiAgICA8c3R5bGU+CiAgICAgIC5jbHMtMSB7CiAgICAgICAgZmlsbDogbm9uZTsKICAgICAgfQogICAgPC9zdHlsZT4KICA8L2RlZnM+CiAgPHBhdGggZD0iTTE2LDNjLTUuMjk3OSwwLTExLDEuMjUyLTExLDRWMjVjMCwyLjc0OCw1LjcwMjEsNCwxMSw0czExLTEuMjUyLDExLTRWN2MwLTIuNzQ4LTUuNzAyMS00LTExLTRabTAsMmM1Ljc5NzYsMCw4Ljc5NDksMS40MzQxLDguOTk2OCwyLS4yMDE5LC41NjU5LTMuMTk5MiwyLTguOTk2OCwyLTUuODQxMywwLTguODM5NC0xLjQ1NTYtOS0xLjk4MjR2LS4wMDQ5Yy4xNjA2LS41NTcxLDMuMTU4Ny0yLjAxMjcsOS0yLjAxMjdaTTcsOS40Mjc3YzIuMTI3OSwxLjA2NzQsNS42NDI2LDEuNTcyMyw5LDEuNTcyM3M2Ljg3MjEtLjUwNDksOS0xLjU3MjN2My41NTk2Yy0uMTYwNiwuNTU3MS0zLjE1ODcsMi4wMTI3LTksMi4wMTI3LTUuODUwMSwwLTguODQ5MS0xLjQ2LTktMnYtMy41NzIzWm0wLDZjMi4xMjc5LDEuMDY3NCw1LjY0MjYsMS41NzIzLDksMS41NzIzczYuODcyMS0uNTA0OSw5LTEuNTcyM3YzLjU1OTZjLS4xNjA2LC41NTcxLTMuMTU4NywyLjAxMjctOSwyLjAxMjctNS44NTAxLDAtOC44NDkxLTEuNDYtOS0ydi0zLjU3MjNabTksMTEuNTcyM2MtNS44NTAxLDAtOC44NDkxLTEuNDYtOS0ydi0zLjU3MjNjMi4xMjc5LDEuMDY3NCw1LjY0MjYsMS41NzIzLDksMS41NzIzczYuODcyMS0uNTA0OSw5LTEuNTcyM3YzLjU1OTZjLS4xNjA2LC41NTcxLTMuMTU4NywyLjAxMjctOSwyLjAxMjdaIi8+CiAgPHJlY3QgaWQ9Il9UcmFuc3BhcmVudF9SZWN0YW5nbGVfIiBkYXRhLW5hbWU9IiZhbXA7bHQ7VHJhbnNwYXJlbnQgUmVjdGFuZ2xlJmFtcDtndDsiIGNsYXNzPSJjbHMtMSIgd2lkdGg9IjMyIiBoZWlnaHQ9IjMyIi8+Cjwvc3ZnPg==;fontFamily=IBM Plex Sans;fontSource=fonts%2FIBMPlexSans-Regular.woff;container=0;" parent="hiCZ41Te97qc9-zwpl-o-194" vertex="1">
          <mxGeometry x="5" y="5" width="25" height="25" as="geometry" />
        </mxCell>
        <mxCell id="hiCZ41Te97qc9-zwpl-o-193" value="" style="group;fontFamily=IBM Plex Sans;fontSource=fonts%2FIBMPlexSans-Regular.woff;" parent="hiCZ41Te97qc9-zwpl-o-419" vertex="1" connectable="0">
          <mxGeometry x="15" y="145.5" width="130" height="35" as="geometry" />
        </mxCell>
        <mxCell id="hiCZ41Te97qc9-zwpl-o-181" value="" style="rounded=0;whiteSpace=wrap;html=1;fontFamily=IBM Plex Sans;fontSource=fonts%2FIBMPlexSans-Regular.woff;fontSize=14;spacingBottom=-28;spacingTop=0;labelPosition=-100;verticalLabelPosition=top;align=center;verticalAlign=bottom;spacingLeft=9;spacing=0;expand=0;recursiveResize=0;spacingRight=0;container=0;collapsible=0;strokeColor=#1192E8;fillColor=none;" parent="hiCZ41Te97qc9-zwpl-o-193" vertex="1">
          <mxGeometry width="130" height="35" as="geometry">
            <mxRectangle width="670" as="alternateBounds" />
          </mxGeometry>
        </mxCell>
        <mxCell id="hiCZ41Te97qc9-zwpl-o-182" value="Service data" style="text;html=1;strokeColor=none;fillColor=none;align=left;verticalAlign=middle;whiteSpace=wrap;rounded=0;fontFamily=IBM Plex Sans;fontSource=fonts%2FIBMPlexSans-Regular.woff;fontSize=14;container=0;" parent="hiCZ41Te97qc9-zwpl-o-193" vertex="1">
          <mxGeometry x="34" y="8" width="86" height="20" as="geometry" />
        </mxCell>
        <mxCell id="hiCZ41Te97qc9-zwpl-o-183" value="" style="shape=image;aspect=fixed;image=data:image/svg+xml,PD94bWwgdmVyc2lvbj0iMS4wIiBlbmNvZGluZz0iVVRGLTgiPz4KPHN2ZyBpZD0iaWNvbiIgeG1sbnM9Imh0dHA6Ly93d3cudzMub3JnLzIwMDAvc3ZnIiB3aWR0aD0iMzIiIGhlaWdodD0iMzIiIHZpZXdCb3g9IjAgMCAzMiAzMiI+CiAgPGRlZnM+CiAgICA8c3R5bGU+CiAgICAgIC5jbHMtMSB7CiAgICAgICAgZmlsbDogbm9uZTsKICAgICAgfQogICAgPC9zdHlsZT4KICA8L2RlZnM+CiAgPHBhdGggZD0iTTE2LDNjLTUuMjk3OSwwLTExLDEuMjUyLTExLDRWMjVjMCwyLjc0OCw1LjcwMjEsNCwxMSw0czExLTEuMjUyLDExLTRWN2MwLTIuNzQ4LTUuNzAyMS00LTExLTRabTAsMmM1Ljc5NzYsMCw4Ljc5NDksMS40MzQxLDguOTk2OCwyLS4yMDE5LC41NjU5LTMuMTk5MiwyLTguOTk2OCwyLTUuODQxMywwLTguODM5NC0xLjQ1NTYtOS0xLjk4MjR2LS4wMDQ5Yy4xNjA2LS41NTcxLDMuMTU4Ny0yLjAxMjcsOS0yLjAxMjdaTTcsOS40Mjc3YzIuMTI3OSwxLjA2NzQsNS42NDI2LDEuNTcyMyw5LDEuNTcyM3M2Ljg3MjEtLjUwNDksOS0xLjU3MjN2My41NTk2Yy0uMTYwNiwuNTU3MS0zLjE1ODcsMi4wMTI3LTksMi4wMTI3LTUuODUwMSwwLTguODQ5MS0xLjQ2LTktMnYtMy41NzIzWm0wLDZjMi4xMjc5LDEuMDY3NCw1LjY0MjYsMS41NzIzLDksMS41NzIzczYuODcyMS0uNTA0OSw5LTEuNTcyM3YzLjU1OTZjLS4xNjA2LC41NTcxLTMuMTU4NywyLjAxMjctOSwyLjAxMjctNS44NTAxLDAtOC44NDkxLTEuNDYtOS0ydi0zLjU3MjNabTksMTEuNTcyM2MtNS44NTAxLDAtOC44NDkxLTEuNDYtOS0ydi0zLjU3MjNjMi4xMjc5LDEuMDY3NCw1LjY0MjYsMS41NzIzLDksMS41NzIzczYuODcyMS0uNTA0OSw5LTEuNTcyM3YzLjU1OTZjLS4xNjA2LC41NTcxLTMuMTU4NywyLjAxMjctOSwyLjAxMjdaIi8+CiAgPHJlY3QgaWQ9Il9UcmFuc3BhcmVudF9SZWN0YW5nbGVfIiBkYXRhLW5hbWU9IiZhbXA7bHQ7VHJhbnNwYXJlbnQgUmVjdGFuZ2xlJmFtcDtndDsiIGNsYXNzPSJjbHMtMSIgd2lkdGg9IjMyIiBoZWlnaHQ9IjMyIi8+Cjwvc3ZnPg==;fontFamily=IBM Plex Sans;fontSource=fonts%2FIBMPlexSans-Regular.woff;container=0;" parent="hiCZ41Te97qc9-zwpl-o-193" vertex="1">
          <mxGeometry x="5" y="5" width="25" height="25" as="geometry" />
        </mxCell>
        <mxCell id="hiCZ41Te97qc9-zwpl-o-197" value="" style="endArrow=classic;startArrow=classic;html=1;rounded=0;entryX=0;entryY=0.25;entryDx=0;entryDy=0;exitX=1;exitY=0.25;exitDx=0;exitDy=0;fontFamily=IBM Plex Sans;fontSource=fonts%2FIBMPlexSans-Regular.woff;" parent="hiCZ41Te97qc9-zwpl-o-73" source="hiCZ41Te97qc9-zwpl-o-383" target="hiCZ41Te97qc9-zwpl-o-419" edge="1">
          <mxGeometry width="50" height="50" relative="1" as="geometry">
            <mxPoint x="450" y="130" as="sourcePoint" />
            <mxPoint x="187" y="280" as="targetPoint" />
          </mxGeometry>
        </mxCell>
        <mxCell id="hiCZ41Te97qc9-zwpl-o-195" value="" style="endArrow=classic;startArrow=classic;html=1;rounded=0;entryX=0;entryY=0.5;entryDx=0;entryDy=0;exitX=1;exitY=0.5;exitDx=0;exitDy=0;fontFamily=IBM Plex Sans;fontSource=fonts%2FIBMPlexSans-Regular.woff;" parent="hiCZ41Te97qc9-zwpl-o-73" source="hiCZ41Te97qc9-zwpl-o-404" target="hiCZ41Te97qc9-zwpl-o-186" edge="1">
          <mxGeometry width="50" height="50" relative="1" as="geometry">
            <mxPoint x="440" y="113" as="sourcePoint" />
            <mxPoint x="187" y="110" as="targetPoint" />
            <Array as="points">
              <mxPoint x="430" y="148" />
            </Array>
          </mxGeometry>
        </mxCell>
        <mxCell id="fKJGzioLh1D1EvW2rPCA-45" value="" style="rounded=0;whiteSpace=wrap;html=1;fontFamily=IBM Plex Sans;fontSource=fonts%2FIBMPlexSans-Regular.woff;fontSize=14;spacingBottom=-28;spacingTop=0;labelPosition=-100;verticalLabelPosition=top;align=center;verticalAlign=bottom;spacingLeft=9;spacing=0;expand=0;recursiveResize=0;spacingRight=0;container=0;collapsible=0;strokeColor=#1192E8;fillColor=none;" vertex="1" parent="1">
          <mxGeometry x="10" y="35" width="300" height="185" as="geometry">
            <mxRectangle width="670" as="alternateBounds" />
          </mxGeometry>
        </mxCell>
        <mxCell id="fKJGzioLh1D1EvW2rPCA-46" value="" style="group" vertex="1" connectable="0" parent="1">
          <mxGeometry x="18" y="50" width="282" height="160" as="geometry" />
        </mxCell>
        <mxCell id="hiCZ41Te97qc9-zwpl-o-31" value="" style="rounded=0;whiteSpace=wrap;html=1;fontFamily=IBM Plex Sans;fontSource=fonts%2FIBMPlexSans-Regular.woff;fontSize=14;spacingBottom=-28;spacingTop=0;labelPosition=-100;verticalLabelPosition=top;align=center;verticalAlign=bottom;spacingLeft=9;spacing=0;expand=0;recursiveResize=0;spacingRight=0;container=0;collapsible=0;strokeColor=#1192E8;fillColor=none;" parent="fKJGzioLh1D1EvW2rPCA-46" vertex="1">
          <mxGeometry width="282" height="160" as="geometry">
            <mxRectangle width="670" as="alternateBounds" />
          </mxGeometry>
        </mxCell>
        <mxCell id="hiCZ41Te97qc9-zwpl-o-32" value="" style="rounded=0;whiteSpace=wrap;html=1;strokeColor=none;fillColor=#1192E8;fontFamily=IBM Plex Sans;fontSource=fonts%2FIBMPlexSans-Regular.woff;" parent="fKJGzioLh1D1EvW2rPCA-46" vertex="1">
          <mxGeometry width="7" height="37" as="geometry" />
        </mxCell>
        <mxCell id="hiCZ41Te97qc9-zwpl-o-33" value="Service instances" style="text;html=1;strokeColor=none;fillColor=none;align=left;verticalAlign=middle;whiteSpace=wrap;rounded=0;fontFamily=IBM Plex Sans;fontSource=fonts%2FIBMPlexSans-Regular.woff;fontSize=14;" parent="fKJGzioLh1D1EvW2rPCA-46" vertex="1">
          <mxGeometry x="51" y="8" width="119" height="20" as="geometry" />
        </mxCell>
        <mxCell id="hiCZ41Te97qc9-zwpl-o-34" value="" style="shape=image;aspect=fixed;image=data:image/svg+xml,PD94bWwgdmVyc2lvbj0iMS4wIiBlbmNvZGluZz0iVVRGLTgiPz4KPHN2ZyB3aWR0aD0iMzNweCIgaGVpZ2h0PSIyNnB4IiB2aWV3Qm94PSIwIDAgMzMgMjYiIHZlcnNpb249IjEuMSIgeG1sbnM9Imh0dHA6Ly93d3cudzMub3JnLzIwMDAvc3ZnIiB4bWxuczp4bGluaz0iaHR0cDovL3d3dy53My5vcmcvMTk5OS94bGluayI+CiAgICA8IS0tIEdlbmVyYXRvcjogU2tldGNoIDUzICg3MjUyMCkgLSBodHRwczovL3NrZXRjaGFwcC5jb20gLS0+CiAgICA8dGl0bGU+Q2xvdWQgU2VydmljZXMgQmxhY2s8L3RpdGxlPgogICAgPGRlc2M+Q3JlYXRlZCB3aXRoIFNrZXRjaC48L2Rlc2M+CiAgICA8ZyBpZD0iUGFnZS0xIiBzdHJva2U9Im5vbmUiIHN0cm9rZS13aWR0aD0iMSIgZmlsbD0ibm9uZSIgZmlsbC1ydWxlPSJldmVub2RkIj4KICAgICAgICA8ZyBpZD0iQ2xvdWQtU2VydmljZXMtQmxhY2siIHRyYW5zZm9ybT0idHJhbnNsYXRlKDAuMDYyNTAwLCAtMS4wMDAwMDApIiBmaWxsPSIjMDAwMDAwIj4KICAgICAgICAgICAgPGcgaWQ9Ikdyb3VwLTMiIHRyYW5zZm9ybT0idHJhbnNsYXRlKDAuMDAwMDAwLCAwLjAwMjAwMCkiPgogICAgICAgICAgICAgICAgPHBhdGggZD0iTTI1LjgyMzEsOS4xMjQgQzI0Ljc4NzEsMy43IDE5LjU1MTEsMC4xNDIgMTQuMTI2MSwxLjE3NyBDMTAuMDk4MSwxLjk0NiA2Ljk0ODEsNS4wOTYgNi4xNzkxLDkuMTI0IEMwLjA5MjEsMTAuMjExIC0yLjk1NzksMTguMzYzIDMuOTY0MSwyMy42MzIgQzQuMjg1MSwyMy44NzcgNC42ODkxLDI0IDUuMDkzMSwyNCBMOC4wMDExLDI0IEw4LjAwMTEsMjIgTDUuNDQ4MSwyMiBDNS4xMDQxLDIyIDQuNzYyMSwyMS44NzcgNC41MTExLDIxLjY0MiBDLTAuMzUzOSwxNy4wODYgMi41ODYxLDExLjMzIDcuMTI0MSwxMS4wMiBMNy45NjExLDEwLjk2MyBMOC4zNTYxLDcuMjk4IEM4LjQwNzEsNi44MzIgOC42MTMxLDYuMzg2IDguOTU3MSw2LjA2NyBDMTUuNjAxMSwtMC4wOTQgMjMuMjc2MSwzLjkzNyAyMy45NTIxLDEwLjEzIEwyNC4wNDIxLDEwLjk2MyBMMjYuOTI2MSwxMS4xNiBDMjcuMjY5MSwxMS4xODQgMjcuNjAxMSwxMS4zMyAyNy44MzUxLDExLjU4MiBDMzIuMzc5MSwxNi40NiAyOS4wNTAxLDIyLjAwMyAyNC41MDExLDIyIEwyNC4wMDExLDIyIEwyNC4wMDExLDI0IEwyNy4yMTUxLDI0IEMyNy42NjExLDI0IDI4LjEwMzEsMjMuODQ4IDI4LjQzNzEsMjMuNTUyIEMzNC45MTQxLDE3LjgxNiAzMS42NjgxLDEwLjE2OCAyNS44MjMxLDkuMTI0IiBpZD0iRmlsbC0xIj48L3BhdGg+CiAgICAgICAgICAgIDwvZz4KICAgICAgICAgICAgPHBhdGggZD0iTTE1LjU3NCwyMi44MjU3IEMxMy45MTcsMjIuODI1NyAxMi41NzQsMjEuNDgyNyAxMi41NzQsMTkuODI1NyBDMTIuNTc0LDE4LjE2ODcgMTMuOTE3LDE2LjgyNTcgMTUuNTc0LDE2LjgyNTcgQzE3LjIzMSwxNi44MjU3IDE4LjU3NCwxOC4xNjg3IDE4LjU3NCwxOS44MjU3IEMxOC41NzIsMjEuNDgxNyAxNy4yMywyMi44MjM3IDE1LjU3NCwyMi44MjU3IEwxNS41NzQsMjIuODI1NyBaIE0yMy4wMDEsMjEuMDAxNyBMMjMuMDAxLDE5LjAwMTcgTDIwLjksMTkuMDAxNyBDMjAuNzcxLDE4LjM3NTcgMjAuNTIzLDE3Ljc4MDcgMjAuMTY4LDE3LjI0ODcgTDIxLjY1OCwxNS43NTk3IEwyMC4yNDQsMTQuMzQ1NyBMMTguNzU0LDE1LjgzNDcgQzE4LjIyMiwxNS40ODA3IDE3LjYyNywxNS4yMzE3IDE3LjAwMSwxNS4xMDI3IEwxNy4wMDEsMTMuMDAxNyBMMTUuMDAxLDEzLjAwMTcgTDE1LjAwMSwxNS4xMDI3IEMxNC4zNzUsMTUuMjMxNyAxMy43OCwxNS40ODA3IDEzLjI0OCwxNS44MzQ3IEwxMS43NTgsMTQuMzQ0NyBMMTAuMzQ1LDE1Ljc1ODcgTDExLjgzNCwxNy4yNDg3IEMxMS40OCwxNy43ODA3IDExLjIzMSwxOC4zNzU3IDExLjEwMiwxOS4wMDE3IEw5LjAwMSwxOS4wMDE3IEw5LjAwMSwyMS4wMDE3IEwxMS4xMDIsMjEuMDAxNyBDMTEuMjMxLDIxLjYyNzcgMTEuNDgsMjIuMjIyNyAxMS44MzQsMjIuNzU0NyBMMTAuMzQ0LDI0LjI0NDcgTDExLjc1OCwyNS42NTg3IEwxMy4yNDgsMjQuMTY4NyBDMTMuNzgsMjQuNTIzNyAxNC4zNzUsMjQuNzcxNyAxNS4wMDEsMjQuOTAwNyBMMTUuMDAxLDI3LjAwMTcgTDE3LjAwMSwyNy4wMDE3IEwxNy4wMDEsMjQuOTAwNyBDMTcuNjI3LDI0Ljc3MTcgMTguMjIyLDI0LjUyMzcgMTguNzU0LDI0LjE2ODcgTDIwLjI0NCwyNS42NTg3IEwyMS42NTgsMjQuMjQ0NyBMMjAuMTY4LDIyLjc1NDcgQzIwLjUyMywyMi4yMjI3IDIwLjc3MSwyMS42Mjc3IDIwLjksMjEuMDAxNyBMMjMuMDAxLDIxLjAwMTcgWiIgaWQ9IkZpbGwtNCI+PC9wYXRoPgogICAgICAgIDwvZz4KICAgIDwvZz4KPC9zdmc+;fontFamily=IBM Plex Sans;fontSource=fonts%2FIBMPlexSans-Regular.woff;" parent="fKJGzioLh1D1EvW2rPCA-46" vertex="1">
          <mxGeometry x="20" y="6.649999999999999" width="25" height="19.71" as="geometry" />
        </mxCell>
        <mxCell id="hiCZ41Te97qc9-zwpl-o-57" value="" style="group;fontFamily=IBM Plex Sans;fontSource=fonts%2FIBMPlexSans-Regular.woff;" parent="fKJGzioLh1D1EvW2rPCA-46" vertex="1" connectable="0">
          <mxGeometry x="20" y="42" width="120" height="35" as="geometry" />
        </mxCell>
        <mxCell id="hiCZ41Te97qc9-zwpl-o-35" value="" style="rounded=0;whiteSpace=wrap;html=1;fontFamily=IBM Plex Sans;fontSource=fonts%2FIBMPlexSans-Regular.woff;fontSize=14;spacingBottom=-28;spacingTop=0;labelPosition=-100;verticalLabelPosition=top;align=center;verticalAlign=bottom;spacingLeft=9;spacing=0;expand=0;recursiveResize=0;spacingRight=0;container=0;collapsible=0;strokeColor=#1192E8;fillColor=none;" parent="hiCZ41Te97qc9-zwpl-o-57" vertex="1">
          <mxGeometry width="120" height="35" as="geometry">
            <mxRectangle width="670" as="alternateBounds" />
          </mxGeometry>
        </mxCell>
        <mxCell id="hiCZ41Te97qc9-zwpl-o-36" value="Platform" style="text;html=1;strokeColor=none;fillColor=none;align=left;verticalAlign=middle;whiteSpace=wrap;rounded=0;fontFamily=IBM Plex Sans;fontSource=fonts%2FIBMPlexSans-Regular.woff;fontSize=14;" parent="hiCZ41Te97qc9-zwpl-o-57" vertex="1">
          <mxGeometry x="34" y="8" width="76" height="20" as="geometry" />
        </mxCell>
        <mxCell id="hiCZ41Te97qc9-zwpl-o-52" value="" style="shape=image;aspect=fixed;image=data:image/svg+xml,PHN2ZyBpZD0iaWNvbiIgeG1sbnM9Imh0dHA6Ly93d3cudzMub3JnLzIwMDAvc3ZnIiB3aWR0aD0iMzIiIGhlaWdodD0iMzIiIHZpZXdCb3g9IjAgMCAzMiAzMiI+PGRlZnM+PHN0eWxlPi5jbHMtMXtmaWxsOm5vbmU7fTwvc3R5bGU+PC9kZWZzPjx0aXRsZT5pYm0tY2xvdWQ8L3RpdGxlPjxwYXRoIGQ9Ik0yNC41ODA1LDEzLjY1QTkuNzMyNyw5LjczMjcsMCwwLDAsNi4yODYsMTcuNTM4Nyw2Ljc1LDYuNzUsMCwwLDAsNywzMUgyM2E4Ljc0NjUsOC43NDY1LDAsMCwwLDEuNTgwNS0xNy4zNVpNMjMsMjkuNUg3YTUuMjM3Myw1LjIzNzMsMCwwLDEtLjY5OTMtMTAuNDI5Myw5LjcyNjUsOS43MjY1LDAsMCwwLDEuMTAzNiwzLjc4MzguNzUuNzUsMCwxLDAsMS4zMjEzLS43MDlBOC4yNSw4LjI1LDAsMCwxLDIyLjc1MiwxMy41MTMzYTguNzU0LDguNzU0LDAsMCwwLTYuMzE1LDIuOTUuNzUuNzUsMCwxLDAsMS4xMjQ1Ljk5MjJBNy4yNSw3LjI1LDAsMSwxLDIzLDI5LjVaIiB0cmFuc2Zvcm09InRyYW5zbGF0ZSgwKSIvPjxwYXRoIGQ9Ik0zMS44OTgzLDEwLjI1NDhhLjc1ODIuNzU4MiwwLDAsMC0xLjAzNjQtLjI3NzZsLTMuMDIsMS43NDM4QS43NTg3Ljc1ODcsMCwxLDAsMjguNiwxMy4wMzVsMy4wMi0xLjc0MzhBLjc1ODkuNzU4OSwwLDAsMCwzMS44OTgzLDEwLjI1NDhaIiB0cmFuc2Zvcm09InRyYW5zbGF0ZSgwKSIvPjxwYXRoIGQ9Ik0yMi42NzY0LDcuODdhLjc1ODMuNzU4MywwLDAsMCwxLjAzNjQtLjI3NzZsMS43NDM4LTMuMDJhLjc1ODcuNzU4NywwLDAsMC0xLjMxNC0uNzU4OGwtMS43NDM4LDMuMDJBLjc1ODguNzU4OCwwLDAsMCwyMi42NzY0LDcuODdaIiB0cmFuc2Zvcm09InRyYW5zbGF0ZSgwKSIvPjxwYXRoIGQ9Ik0xNiw2LjA4MTFhLjc1OS43NTksMCwwLDAsLjc1ODgtLjc1ODhWMS44MzQ3YS43NTg4Ljc1ODgsMCwxLDAtMS41MTc1LDBWNS4zMjIzQS43NTg5Ljc1ODksMCwwLDAsMTYsNi4wODExWiIgdHJhbnNmb3JtPSJ0cmFuc2xhdGUoMCkiLz48cGF0aCBkPSJNOC4yODczLDcuNTkyMmEuNzU4Ny43NTg3LDAsMCwwLDEuMzE0LS43NTg4bC0xLjc0MzgtMy4wMmEuNzU4Ny43NTg3LDAsMSwwLTEuMzE0Ljc1ODhaIiB0cmFuc2Zvcm09InRyYW5zbGF0ZSgwKSIvPjxwYXRoIGQ9Ik00LjE1ODUsMTEuNzIxbC0zLjAyLTEuNzQzOGEuNzU4Ny43NTg3LDAsMSwwLS43NTg4LDEuMzE0TDMuNCwxMy4wMzVhLjc1ODcuNzU4NywwLDEsMCwuNzU4OC0xLjMxNFoiIHRyYW5zZm9ybT0idHJhbnNsYXRlKDApIi8+PHJlY3QgaWQ9Il9UcmFuc3BhcmVudF9SZWN0YW5nbGVfIiBkYXRhLW5hbWU9IiZsdDtUcmFuc3BhcmVudCBSZWN0YW5nbGUmZ3Q7IiBjbGFzcz0iY2xzLTEiIHdpZHRoPSIzMiIgaGVpZ2h0PSIzMiIvPjwvc3ZnPg==;fontFamily=IBM Plex Sans;fontSource=fonts%2FIBMPlexSans-Regular.woff;" parent="hiCZ41Te97qc9-zwpl-o-57" vertex="1">
          <mxGeometry x="5" y="5" width="25" height="25" as="geometry" />
        </mxCell>
        <mxCell id="hiCZ41Te97qc9-zwpl-o-38" style="edgeStyle=orthogonalEdgeStyle;rounded=0;orthogonalLoop=1;jettySize=auto;html=1;exitX=0.5;exitY=1;exitDx=0;exitDy=0;fontFamily=IBM Plex Sans;fontSource=fonts%2FIBMPlexSans-Regular.woff;" parent="hiCZ41Te97qc9-zwpl-o-57" source="hiCZ41Te97qc9-zwpl-o-35" target="hiCZ41Te97qc9-zwpl-o-35" edge="1">
          <mxGeometry relative="1" as="geometry" />
        </mxCell>
        <mxCell id="hiCZ41Te97qc9-zwpl-o-59" value="" style="group;fontFamily=IBM Plex Sans;fontSource=fonts%2FIBMPlexSans-Regular.woff;" parent="fKJGzioLh1D1EvW2rPCA-46" vertex="1" connectable="0">
          <mxGeometry x="152" y="42" width="120" height="35" as="geometry" />
        </mxCell>
        <mxCell id="hiCZ41Te97qc9-zwpl-o-39" value="" style="rounded=0;whiteSpace=wrap;html=1;fontFamily=IBM Plex Sans;fontSource=fonts%2FIBMPlexSans-Regular.woff;fontSize=14;spacingBottom=-28;spacingTop=0;labelPosition=-100;verticalLabelPosition=top;align=center;verticalAlign=bottom;spacingLeft=9;spacing=0;expand=0;recursiveResize=0;spacingRight=0;container=0;collapsible=0;strokeColor=#1192E8;fillColor=none;" parent="hiCZ41Te97qc9-zwpl-o-59" vertex="1">
          <mxGeometry width="120" height="35" as="geometry">
            <mxRectangle width="670" as="alternateBounds" />
          </mxGeometry>
        </mxCell>
        <mxCell id="hiCZ41Te97qc9-zwpl-o-40" value="Databases" style="text;html=1;strokeColor=none;fillColor=none;align=left;verticalAlign=middle;whiteSpace=wrap;rounded=0;fontFamily=IBM Plex Sans;fontSource=fonts%2FIBMPlexSans-Regular.woff;fontSize=14;" parent="hiCZ41Te97qc9-zwpl-o-59" vertex="1">
          <mxGeometry x="34" y="8" width="76" height="20" as="geometry" />
        </mxCell>
        <mxCell id="hiCZ41Te97qc9-zwpl-o-53" value="" style="shape=image;aspect=fixed;image=data:image/svg+xml,PD94bWwgdmVyc2lvbj0iMS4wIiBlbmNvZGluZz0iVVRGLTgiPz4KPHN2ZyBpZD0iaWNvbiIgeG1sbnM9Imh0dHA6Ly93d3cudzMub3JnLzIwMDAvc3ZnIiB3aWR0aD0iMzIiIGhlaWdodD0iMzIiIHZpZXdCb3g9IjAgMCAzMiAzMiI+CiAgPGRlZnM+CiAgICA8c3R5bGU+CiAgICAgIC5jbHMtMSB7CiAgICAgICAgZmlsbDogbm9uZTsKICAgICAgfQogICAgPC9zdHlsZT4KICA8L2RlZnM+CiAgPHBhdGggZD0iTTE2LDNjLTUuMjk3OSwwLTExLDEuMjUyLTExLDRWMjVjMCwyLjc0OCw1LjcwMjEsNCwxMSw0czExLTEuMjUyLDExLTRWN2MwLTIuNzQ4LTUuNzAyMS00LTExLTRabTAsMmM1Ljc5NzYsMCw4Ljc5NDksMS40MzQxLDguOTk2OCwyLS4yMDE5LC41NjU5LTMuMTk5MiwyLTguOTk2OCwyLTUuODQxMywwLTguODM5NC0xLjQ1NTYtOS0xLjk4MjR2LS4wMDQ5Yy4xNjA2LS41NTcxLDMuMTU4Ny0yLjAxMjcsOS0yLjAxMjdaTTcsOS40Mjc3YzIuMTI3OSwxLjA2NzQsNS42NDI2LDEuNTcyMyw5LDEuNTcyM3M2Ljg3MjEtLjUwNDksOS0xLjU3MjN2My41NTk2Yy0uMTYwNiwuNTU3MS0zLjE1ODcsMi4wMTI3LTksMi4wMTI3LTUuODUwMSwwLTguODQ5MS0xLjQ2LTktMnYtMy41NzIzWm0wLDZjMi4xMjc5LDEuMDY3NCw1LjY0MjYsMS41NzIzLDksMS41NzIzczYuODcyMS0uNTA0OSw5LTEuNTcyM3YzLjU1OTZjLS4xNjA2LC41NTcxLTMuMTU4NywyLjAxMjctOSwyLjAxMjctNS44NTAxLDAtOC44NDkxLTEuNDYtOS0ydi0zLjU3MjNabTksMTEuNTcyM2MtNS44NTAxLDAtOC44NDkxLTEuNDYtOS0ydi0zLjU3MjNjMi4xMjc5LDEuMDY3NCw1LjY0MjYsMS41NzIzLDksMS41NzIzczYuODcyMS0uNTA0OSw5LTEuNTcyM3YzLjU1OTZjLS4xNjA2LC41NTcxLTMuMTU4NywyLjAxMjctOSwyLjAxMjdaIi8+CiAgPHJlY3QgaWQ9Il9UcmFuc3BhcmVudF9SZWN0YW5nbGVfIiBkYXRhLW5hbWU9IiZhbXA7bHQ7VHJhbnNwYXJlbnQgUmVjdGFuZ2xlJmFtcDtndDsiIGNsYXNzPSJjbHMtMSIgd2lkdGg9IjMyIiBoZWlnaHQ9IjMyIi8+Cjwvc3ZnPg==;fontFamily=IBM Plex Sans;fontSource=fonts%2FIBMPlexSans-Regular.woff;" parent="hiCZ41Te97qc9-zwpl-o-59" vertex="1">
          <mxGeometry x="5" y="5" width="25" height="25" as="geometry" />
        </mxCell>
        <mxCell id="hiCZ41Te97qc9-zwpl-o-65" value="" style="group;fontFamily=IBM Plex Sans;fontSource=fonts%2FIBMPlexSans-Regular.woff;" parent="fKJGzioLh1D1EvW2rPCA-46" vertex="1" connectable="0">
          <mxGeometry x="20" y="90" width="120" height="35" as="geometry" />
        </mxCell>
        <mxCell id="hiCZ41Te97qc9-zwpl-o-43" value="" style="rounded=0;whiteSpace=wrap;html=1;fontFamily=IBM Plex Sans;fontSource=fonts%2FIBMPlexSans-Regular.woff;fontSize=14;spacingBottom=-28;spacingTop=0;labelPosition=-100;verticalLabelPosition=top;align=center;verticalAlign=bottom;spacingLeft=9;spacing=0;expand=0;recursiveResize=0;spacingRight=0;container=0;collapsible=0;strokeColor=#1192E8;fillColor=none;" parent="hiCZ41Te97qc9-zwpl-o-65" vertex="1">
          <mxGeometry y="-1" width="120" height="35" as="geometry">
            <mxRectangle width="670" as="alternateBounds" />
          </mxGeometry>
        </mxCell>
        <mxCell id="hiCZ41Te97qc9-zwpl-o-44" value="Compute" style="text;html=1;strokeColor=none;fillColor=none;align=left;verticalAlign=middle;whiteSpace=wrap;rounded=0;fontFamily=IBM Plex Sans;fontSource=fonts%2FIBMPlexSans-Regular.woff;fontSize=14;" parent="hiCZ41Te97qc9-zwpl-o-65" vertex="1">
          <mxGeometry x="34" y="8" width="76" height="20" as="geometry" />
        </mxCell>
        <mxCell id="hiCZ41Te97qc9-zwpl-o-54" value="" style="shape=image;aspect=fixed;image=data:image/svg+xml,PD94bWwgdmVyc2lvbj0iMS4wIiBlbmNvZGluZz0iaXNvLTg4NTktMSI/Pgo8IS0tIEdlbmVyYXRvcjogQWRvYmUgSWxsdXN0cmF0b3IgMjQuMS4yLCBTVkcgRXhwb3J0IFBsdWctSW4gLiBTVkcgVmVyc2lvbjogNi4wMCBCdWlsZCAwKSAgLS0+CjxzdmcgdmVyc2lvbj0iMS4xIiBpZD0iTGF5ZXJfMSIgeG1sbnM9Imh0dHA6Ly93d3cudzMub3JnLzIwMDAvc3ZnIiB4bWxuczp4bGluaz0iaHR0cDovL3d3dy53My5vcmcvMTk5OS94bGluayIgeD0iMHB4IiB5PSIwcHgiCgkgdmlld0JveD0iMCAwIDMyIDMyIiBzdHlsZT0iZW5hYmxlLWJhY2tncm91bmQ6bmV3IDAgMCAzMiAzMjsiIHhtbDpzcGFjZT0icHJlc2VydmUiPgo8cGF0aCBpZD0ic2VydmVyc18xXyIgZD0iTTIzLDMxLjM2SDljLTAuMTk5LDAtMC4zNi0wLjE2MS0wLjM2LTAuMzZ2LTMuNjRIMWMtMC4xOTksMC0wLjM2LTAuMTYxLTAuMzYtMC4zNlY1CgljMC0wLjE5OSwwLjE2MS0wLjM2LDAuMzYtMC4zNmg3LjY0VjFjMC0wLjE5OSwwLjE2MS0wLjM2LDAuMzYtMC4zNmgxNGMwLjE5OSwwLDAuMzYsMC4xNjEsMC4zNiwwLjM2djMuNjRIMzEKCWMwLjE5OSwwLDAuMzYsMC4xNjEsMC4zNiwwLjM2djIyYzAsMC4xOTktMC4xNjEsMC4zNi0wLjM2LDAuMzZoLTcuNjRWMzFDMjMuMzYsMzEuMTk5LDIzLjE5OSwzMS4zNiwyMywzMS4zNnogTTkuMzYsMzAuNjRoMTMuMjgKCVYxLjM2SDkuMzZWMzAuNjR6IE0yMy4zNiwyNi42NGg3LjI3OVY1LjM2SDIzLjM2djIuMjhIMjd2MC43MmgtMy42NHYyLjI4SDI3djAuNzJoLTMuNjR2Mi4yOEgyN3YwLjcyaC0zLjY0VjI2LjY0eiBNMS4zNiwyNi42NAoJaDcuMjhWMTQuMzZINXYtMC43MmgzLjY0di0yLjI4SDV2LTAuNzJoMy42NFY4LjM2SDVWNy42NGgzLjY0VjUuMzZIMS4zNlYyNi42NHogTTIwLDEwLjM2aC04VjkuNjRoOFYxMC4zNnogTTIwLDcuMzZoLThWNi42NGg4CglWNy4zNnogTTIwLDQuMzZoLThWMy42NGg4VjQuMzZ6Ii8+CjxyZWN0IGlkPSJfVHJhbnNwYXJlbnRfUmVjdGFuZ2xlIiBzdHlsZT0iZmlsbDpub25lOyIgd2lkdGg9IjMyIiBoZWlnaHQ9IjMyIi8+Cjwvc3ZnPgo=;fontFamily=IBM Plex Sans;fontSource=fonts%2FIBMPlexSans-Regular.woff;" parent="hiCZ41Te97qc9-zwpl-o-65" vertex="1">
          <mxGeometry x="5" y="5.5" width="25" height="25" as="geometry" />
        </mxCell>
        <mxCell id="hiCZ41Te97qc9-zwpl-o-66" value="" style="group;fontFamily=IBM Plex Sans;fontSource=fonts%2FIBMPlexSans-Regular.woff;" parent="fKJGzioLh1D1EvW2rPCA-46" vertex="1" connectable="0">
          <mxGeometry x="152" y="90" width="120" height="35" as="geometry" />
        </mxCell>
        <mxCell id="hiCZ41Te97qc9-zwpl-o-48" value="" style="rounded=0;whiteSpace=wrap;html=1;fontFamily=IBM Plex Sans;fontSource=fonts%2FIBMPlexSans-Regular.woff;fontSize=14;spacingBottom=-28;spacingTop=0;labelPosition=-100;verticalLabelPosition=top;align=center;verticalAlign=bottom;spacingLeft=9;spacing=0;expand=0;recursiveResize=0;spacingRight=0;container=0;collapsible=0;strokeColor=#1192E8;fillColor=none;" parent="hiCZ41Te97qc9-zwpl-o-66" vertex="1">
          <mxGeometry width="120" height="35" as="geometry">
            <mxRectangle width="670" as="alternateBounds" />
          </mxGeometry>
        </mxCell>
        <mxCell id="hiCZ41Te97qc9-zwpl-o-49" value="Containers" style="text;html=1;strokeColor=none;fillColor=none;align=left;verticalAlign=middle;whiteSpace=wrap;rounded=0;fontFamily=IBM Plex Sans;fontSource=fonts%2FIBMPlexSans-Regular.woff;fontSize=14;" parent="hiCZ41Te97qc9-zwpl-o-66" vertex="1">
          <mxGeometry x="34" y="8" width="76" height="20" as="geometry" />
        </mxCell>
        <mxCell id="hiCZ41Te97qc9-zwpl-o-55" value="" style="shape=image;aspect=fixed;image=data:image/svg+xml,PHN2ZyBpZD0iaWNvbiIgeG1sbnM9Imh0dHA6Ly93d3cudzMub3JnLzIwMDAvc3ZnIiB3aWR0aD0iMzIiIGhlaWdodD0iMzIiIHZpZXdCb3g9IjAgMCAzMiAzMiI+CiAgPGRlZnM+CiAgICA8c3R5bGU+CiAgICAgIC5jbHMtMSB7CiAgICAgICAgZmlsbDogbm9uZTsKICAgICAgfQogICAgPC9zdHlsZT4KICA8L2RlZnM+CiAgPHBhdGggZD0iTTI3LDIyVjE3YTIuMDAyMywyLjAwMjMsMCwwLDAtMi0ySDE3VjEwaDNhMi4wMDIzLDIuMDAyMywwLDAsMCwyLTJWNGEyLjAwMjMsMi4wMDIzLDAsMCwwLTItMkgxMmEyLjAwMjMsMi4wMDIzLDAsMCwwLTIsMlY4YTIuMDAyMywyLjAwMjMsMCwwLDAsMiwyaDN2NUg3YTIuMDAyMywyLjAwMjMsMCwwLDAtMiwydjVIMnY4aDhWMjJIN1YxN2g4djVIMTJ2OGg4VjIySDE3VjE3aDh2NUgyMnY4aDhWMjJaTTEyLDRoOFY4SDEyWk04LDI4SDRWMjRIOFptMTAsMEgxNFYyNGg0Wm0xMCwwSDI0VjI0aDRaIiB0cmFuc2Zvcm09InRyYW5zbGF0ZSgwIDApIi8+CiAgPHJlY3QgaWQ9Il9UcmFuc3BhcmVudF9SZWN0YW5nbGVfIiBkYXRhLW5hbWU9IiZsdDtUcmFuc3BhcmVudCBSZWN0YW5nbGUmZ3Q7IiBjbGFzcz0iY2xzLTEiIHdpZHRoPSIzMiIgaGVpZ2h0PSIzMiIvPgo8L3N2Zz4K;fontFamily=IBM Plex Sans;fontSource=fonts%2FIBMPlexSans-Regular.woff;" parent="hiCZ41Te97qc9-zwpl-o-66" vertex="1">
          <mxGeometry x="5" y="5" width="25" height="25" as="geometry" />
        </mxCell>
        <mxCell id="hiCZ41Te97qc9-zwpl-o-123" value="..." style="text;html=1;align=center;verticalAlign=middle;resizable=0;points=[];autosize=1;strokeColor=none;fillColor=none;fontFamily=IBM Plex Sans;fontSource=fonts%2FIBMPlexSans-Regular.woff;" parent="fKJGzioLh1D1EvW2rPCA-46" vertex="1">
          <mxGeometry x="131" y="125" width="30" height="30" as="geometry" />
        </mxCell>
        <mxCell id="fKJGzioLh1D1EvW2rPCA-47" value="" style="rounded=0;whiteSpace=wrap;html=1;fontFamily=IBM Plex Sans;fontSource=fonts%2FIBMPlexSans-Regular.woff;fontSize=14;spacingBottom=-28;spacingTop=0;labelPosition=-100;verticalLabelPosition=top;align=center;verticalAlign=bottom;spacingLeft=9;spacing=0;expand=0;recursiveResize=0;spacingRight=0;container=0;collapsible=0;strokeColor=#1192E8;fillColor=none;" vertex="1" parent="1">
          <mxGeometry x="18" y="25" width="300" height="185" as="geometry">
            <mxRectangle width="670" as="alternateBounds" />
          </mxGeometry>
        </mxCell>
        <mxCell id="fKJGzioLh1D1EvW2rPCA-48" value="By Region" style="text;html=1;align=center;verticalAlign=middle;resizable=0;points=[];autosize=1;strokeColor=none;fillColor=none;" vertex="1" parent="1">
          <mxGeometry x="205" y="50" width="80" height="30" as="geometry" />
        </mxCell>
      </root>
    </mxGraphModel>
  </diagram>
</mxfile>
